<?xml version="1.0" encoding="utf-8" standalone="no"?>
<!DOCTYPE svg PUBLIC "-//W3C//DTD SVG 1.1//EN"
  "http://www.w3.org/Graphics/SVG/1.1/DTD/svg11.dtd">
<!-- Created with matplotlib (http://matplotlib.org/) -->
<svg height="467pt" version="1.1" viewBox="0 0 983 467" width="983pt" xmlns="http://www.w3.org/2000/svg" xmlns:xlink="http://www.w3.org/1999/xlink">
 <defs>
  <style type="text/css">
*{stroke-linecap:butt;stroke-linejoin:round;}
  </style>
 </defs>
 <g id="figure_1">
  <g id="patch_1">
   <path d="M 0 467.28 
L 983.52 467.28 
L 983.52 0 
L 0 0 
z
" style="fill:#ffffff;"/>
  </g>
  <g id="axes_1">
   <g id="patch_2">
    <path d="M 122.94 415.8792 
L 885.168 415.8792 
L 885.168 56.0736 
L 122.94 56.0736 
z
" style="fill:#ffffff;"/>
   </g>
   <g id="matplotlib.axis_1">
    <g id="xtick_1">
     <g id="line2d_1">
      <path clip-path="url(#pcfcbb9933d)" d="M 122.631572 415.8792 
L 122.631572 56.0736 
" style="fill:none;stroke:#b0b0b0;stroke-linecap:square;stroke-width:0.8;"/>
     </g>
     <g id="line2d_2">
      <defs>
       <path d="M 0 0 
L 0 3.5 
" id="mc2cf1719f4" style="stroke:#000000;stroke-width:0.8;"/>
      </defs>
      <g>
       <use style="stroke:#000000;stroke-width:0.8;" x="122.631572" xlink:href="#mc2cf1719f4" y="415.8792"/>
      </g>
     </g>
     <g id="text_1">
      <!-- 0 -->
      <defs>
       <path d="M 31.78125 66.40625 
Q 24.171875 66.40625 20.328125 58.90625 
Q 16.5 51.421875 16.5 36.375 
Q 16.5 21.390625 20.328125 13.890625 
Q 24.171875 6.390625 31.78125 6.390625 
Q 39.453125 6.390625 43.28125 13.890625 
Q 47.125 21.390625 47.125 36.375 
Q 47.125 51.421875 43.28125 58.90625 
Q 39.453125 66.40625 31.78125 66.40625 
M 31.78125 74.21875 
Q 44.046875 74.21875 50.515625 64.515625 
Q 56.984375 54.828125 56.984375 36.375 
Q 56.984375 17.96875 50.515625 8.265625 
Q 44.046875 -1.421875 31.78125 -1.421875 
Q 19.53125 -1.421875 13.0625 8.265625 
Q 6.59375 17.96875 6.59375 36.375 
Q 6.59375 54.828125 13.0625 64.515625 
Q 19.53125 74.21875 31.78125 74.21875 
" id="DejaVuSans-30"/>
      </defs>
      <g transform="translate(119.450322 430.477638)scale(0.1 -0.1)">
       <use xlink:href="#DejaVuSans-30"/>
      </g>
     </g>
    </g>
    <g id="xtick_2">
     <g id="line2d_3">
      <path clip-path="url(#pcfcbb9933d)" d="M 225.440852 415.8792 
L 225.440852 56.0736 
" style="fill:none;stroke:#b0b0b0;stroke-linecap:square;stroke-width:0.8;"/>
     </g>
     <g id="line2d_4">
      <g>
       <use style="stroke:#000000;stroke-width:0.8;" x="225.440852" xlink:href="#mc2cf1719f4" y="415.8792"/>
      </g>
     </g>
     <g id="text_2">
      <!-- 5 -->
      <defs>
       <path d="M 10.796875 72.90625 
L 49.515625 72.90625 
L 49.515625 64.59375 
L 19.828125 64.59375 
L 19.828125 46.734375 
Q 21.96875 47.46875 24.109375 47.828125 
Q 26.265625 48.1875 28.421875 48.1875 
Q 40.625 48.1875 47.75 41.5 
Q 54.890625 34.8125 54.890625 23.390625 
Q 54.890625 11.625 47.5625 5.09375 
Q 40.234375 -1.421875 26.90625 -1.421875 
Q 22.3125 -1.421875 17.546875 -0.640625 
Q 12.796875 0.140625 7.71875 1.703125 
L 7.71875 11.625 
Q 12.109375 9.234375 16.796875 8.0625 
Q 21.484375 6.890625 26.703125 6.890625 
Q 35.15625 6.890625 40.078125 11.328125 
Q 45.015625 15.765625 45.015625 23.390625 
Q 45.015625 31 40.078125 35.4375 
Q 35.15625 39.890625 26.703125 39.890625 
Q 22.75 39.890625 18.8125 39.015625 
Q 14.890625 38.140625 10.796875 36.28125 
z
" id="DejaVuSans-35"/>
      </defs>
      <g transform="translate(222.259602 430.477638)scale(0.1 -0.1)">
       <use xlink:href="#DejaVuSans-35"/>
      </g>
     </g>
    </g>
    <g id="xtick_3">
     <g id="line2d_5">
      <path clip-path="url(#pcfcbb9933d)" d="M 328.250132 415.8792 
L 328.250132 56.0736 
" style="fill:none;stroke:#b0b0b0;stroke-linecap:square;stroke-width:0.8;"/>
     </g>
     <g id="line2d_6">
      <g>
       <use style="stroke:#000000;stroke-width:0.8;" x="328.250132" xlink:href="#mc2cf1719f4" y="415.8792"/>
      </g>
     </g>
     <g id="text_3">
      <!-- 10 -->
      <defs>
       <path d="M 12.40625 8.296875 
L 28.515625 8.296875 
L 28.515625 63.921875 
L 10.984375 60.40625 
L 10.984375 69.390625 
L 28.421875 72.90625 
L 38.28125 72.90625 
L 38.28125 8.296875 
L 54.390625 8.296875 
L 54.390625 0 
L 12.40625 0 
z
" id="DejaVuSans-31"/>
      </defs>
      <g transform="translate(321.887632 430.477638)scale(0.1 -0.1)">
       <use xlink:href="#DejaVuSans-31"/>
       <use x="63.623047" xlink:href="#DejaVuSans-30"/>
      </g>
     </g>
    </g>
    <g id="xtick_4">
     <g id="line2d_7">
      <path clip-path="url(#pcfcbb9933d)" d="M 431.059411 415.8792 
L 431.059411 56.0736 
" style="fill:none;stroke:#b0b0b0;stroke-linecap:square;stroke-width:0.8;"/>
     </g>
     <g id="line2d_8">
      <g>
       <use style="stroke:#000000;stroke-width:0.8;" x="431.059411" xlink:href="#mc2cf1719f4" y="415.8792"/>
      </g>
     </g>
     <g id="text_4">
      <!-- 15 -->
      <g transform="translate(424.696911 430.477638)scale(0.1 -0.1)">
       <use xlink:href="#DejaVuSans-31"/>
       <use x="63.623047" xlink:href="#DejaVuSans-35"/>
      </g>
     </g>
    </g>
    <g id="xtick_5">
     <g id="line2d_9">
      <path clip-path="url(#pcfcbb9933d)" d="M 533.868691 415.8792 
L 533.868691 56.0736 
" style="fill:none;stroke:#b0b0b0;stroke-linecap:square;stroke-width:0.8;"/>
     </g>
     <g id="line2d_10">
      <g>
       <use style="stroke:#000000;stroke-width:0.8;" x="533.868691" xlink:href="#mc2cf1719f4" y="415.8792"/>
      </g>
     </g>
     <g id="text_5">
      <!-- 20 -->
      <defs>
       <path d="M 19.1875 8.296875 
L 53.609375 8.296875 
L 53.609375 0 
L 7.328125 0 
L 7.328125 8.296875 
Q 12.9375 14.109375 22.625 23.890625 
Q 32.328125 33.6875 34.8125 36.53125 
Q 39.546875 41.84375 41.421875 45.53125 
Q 43.3125 49.21875 43.3125 52.78125 
Q 43.3125 58.59375 39.234375 62.25 
Q 35.15625 65.921875 28.609375 65.921875 
Q 23.96875 65.921875 18.8125 64.3125 
Q 13.671875 62.703125 7.8125 59.421875 
L 7.8125 69.390625 
Q 13.765625 71.78125 18.9375 73 
Q 24.125 74.21875 28.421875 74.21875 
Q 39.75 74.21875 46.484375 68.546875 
Q 53.21875 62.890625 53.21875 53.421875 
Q 53.21875 48.921875 51.53125 44.890625 
Q 49.859375 40.875 45.40625 35.40625 
Q 44.1875 33.984375 37.640625 27.21875 
Q 31.109375 20.453125 19.1875 8.296875 
" id="DejaVuSans-32"/>
      </defs>
      <g transform="translate(527.506191 430.477638)scale(0.1 -0.1)">
       <use xlink:href="#DejaVuSans-32"/>
       <use x="63.623047" xlink:href="#DejaVuSans-30"/>
      </g>
     </g>
    </g>
    <g id="xtick_6">
     <g id="line2d_11">
      <path clip-path="url(#pcfcbb9933d)" d="M 636.677971 415.8792 
L 636.677971 56.0736 
" style="fill:none;stroke:#b0b0b0;stroke-linecap:square;stroke-width:0.8;"/>
     </g>
     <g id="line2d_12">
      <g>
       <use style="stroke:#000000;stroke-width:0.8;" x="636.677971" xlink:href="#mc2cf1719f4" y="415.8792"/>
      </g>
     </g>
     <g id="text_6">
      <!-- 25 -->
      <g transform="translate(630.315471 430.477638)scale(0.1 -0.1)">
       <use xlink:href="#DejaVuSans-32"/>
       <use x="63.623047" xlink:href="#DejaVuSans-35"/>
      </g>
     </g>
    </g>
    <g id="xtick_7">
     <g id="line2d_13">
      <path clip-path="url(#pcfcbb9933d)" d="M 739.487251 415.8792 
L 739.487251 56.0736 
" style="fill:none;stroke:#b0b0b0;stroke-linecap:square;stroke-width:0.8;"/>
     </g>
     <g id="line2d_14">
      <g>
       <use style="stroke:#000000;stroke-width:0.8;" x="739.487251" xlink:href="#mc2cf1719f4" y="415.8792"/>
      </g>
     </g>
     <g id="text_7">
      <!-- 30 -->
      <defs>
       <path d="M 40.578125 39.3125 
Q 47.65625 37.796875 51.625 33 
Q 55.609375 28.21875 55.609375 21.1875 
Q 55.609375 10.40625 48.1875 4.484375 
Q 40.765625 -1.421875 27.09375 -1.421875 
Q 22.515625 -1.421875 17.65625 -0.515625 
Q 12.796875 0.390625 7.625 2.203125 
L 7.625 11.71875 
Q 11.71875 9.328125 16.59375 8.109375 
Q 21.484375 6.890625 26.8125 6.890625 
Q 36.078125 6.890625 40.9375 10.546875 
Q 45.796875 14.203125 45.796875 21.1875 
Q 45.796875 27.640625 41.28125 31.265625 
Q 36.765625 34.90625 28.71875 34.90625 
L 20.21875 34.90625 
L 20.21875 43.015625 
L 29.109375 43.015625 
Q 36.375 43.015625 40.234375 45.921875 
Q 44.09375 48.828125 44.09375 54.296875 
Q 44.09375 59.90625 40.109375 62.90625 
Q 36.140625 65.921875 28.71875 65.921875 
Q 24.65625 65.921875 20.015625 65.03125 
Q 15.375 64.15625 9.8125 62.3125 
L 9.8125 71.09375 
Q 15.4375 72.65625 20.34375 73.4375 
Q 25.25 74.21875 29.59375 74.21875 
Q 40.828125 74.21875 47.359375 69.109375 
Q 53.90625 64.015625 53.90625 55.328125 
Q 53.90625 49.265625 50.4375 45.09375 
Q 46.96875 40.921875 40.578125 39.3125 
" id="DejaVuSans-33"/>
      </defs>
      <g transform="translate(733.124751 430.477638)scale(0.1 -0.1)">
       <use xlink:href="#DejaVuSans-33"/>
       <use x="63.623047" xlink:href="#DejaVuSans-30"/>
      </g>
     </g>
    </g>
    <g id="xtick_8">
     <g id="line2d_15">
      <path clip-path="url(#pcfcbb9933d)" d="M 842.29653 415.8792 
L 842.29653 56.0736 
" style="fill:none;stroke:#b0b0b0;stroke-linecap:square;stroke-width:0.8;"/>
     </g>
     <g id="line2d_16">
      <g>
       <use style="stroke:#000000;stroke-width:0.8;" x="842.29653" xlink:href="#mc2cf1719f4" y="415.8792"/>
      </g>
     </g>
     <g id="text_8">
      <!-- 35 -->
      <g transform="translate(835.93403 430.477638)scale(0.1 -0.1)">
       <use xlink:href="#DejaVuSans-33"/>
       <use x="63.623047" xlink:href="#DejaVuSans-35"/>
      </g>
     </g>
    </g>
    <g id="text_9">
     <!-- PTS -->
     <defs>
      <path d="M 19.671875 64.796875 
L 19.671875 37.40625 
L 32.078125 37.40625 
Q 38.96875 37.40625 42.71875 40.96875 
Q 46.484375 44.53125 46.484375 51.125 
Q 46.484375 57.671875 42.71875 61.234375 
Q 38.96875 64.796875 32.078125 64.796875 
z
M 9.8125 72.90625 
L 32.078125 72.90625 
Q 44.34375 72.90625 50.609375 67.359375 
Q 56.890625 61.8125 56.890625 51.125 
Q 56.890625 40.328125 50.609375 34.8125 
Q 44.34375 29.296875 32.078125 29.296875 
L 19.671875 29.296875 
L 19.671875 0 
L 9.8125 0 
z
" id="DejaVuSans-50"/>
      <path d="M -0.296875 72.90625 
L 61.375 72.90625 
L 61.375 64.59375 
L 35.5 64.59375 
L 35.5 0 
L 25.59375 0 
L 25.59375 64.59375 
L -0.296875 64.59375 
z
" id="DejaVuSans-54"/>
      <path d="M 53.515625 70.515625 
L 53.515625 60.890625 
Q 47.90625 63.578125 42.921875 64.890625 
Q 37.9375 66.21875 33.296875 66.21875 
Q 25.25 66.21875 20.875 63.09375 
Q 16.5 59.96875 16.5 54.203125 
Q 16.5 49.359375 19.40625 46.890625 
Q 22.3125 44.4375 30.421875 42.921875 
L 36.375 41.703125 
Q 47.40625 39.59375 52.65625 34.296875 
Q 57.90625 29 57.90625 20.125 
Q 57.90625 9.515625 50.796875 4.046875 
Q 43.703125 -1.421875 29.984375 -1.421875 
Q 24.8125 -1.421875 18.96875 -0.25 
Q 13.140625 0.921875 6.890625 3.21875 
L 6.890625 13.375 
Q 12.890625 10.015625 18.65625 8.296875 
Q 24.421875 6.59375 29.984375 6.59375 
Q 38.421875 6.59375 43.015625 9.90625 
Q 47.609375 13.234375 47.609375 19.390625 
Q 47.609375 24.75 44.3125 27.78125 
Q 41.015625 30.8125 33.5 32.328125 
L 27.484375 33.5 
Q 16.453125 35.6875 11.515625 40.375 
Q 6.59375 45.0625 6.59375 53.421875 
Q 6.59375 63.09375 13.40625 68.65625 
Q 20.21875 74.21875 32.171875 74.21875 
Q 37.3125 74.21875 42.625 73.28125 
Q 47.953125 72.359375 53.515625 70.515625 
" id="DejaVuSans-53"/>
     </defs>
     <g transform="translate(494.811031 444.155763)scale(0.1 -0.1)">
      <use xlink:href="#DejaVuSans-50"/>
      <use x="60.302734" xlink:href="#DejaVuSans-54"/>
      <use x="121.386719" xlink:href="#DejaVuSans-53"/>
     </g>
    </g>
   </g>
   <g id="matplotlib.axis_2">
    <g id="ytick_1">
     <g id="line2d_17">
      <path clip-path="url(#pcfcbb9933d)" d="M 122.94 378.502806 
L 885.168 378.502806 
" style="fill:none;stroke:#b0b0b0;stroke-linecap:square;stroke-width:0.8;"/>
     </g>
     <g id="line2d_18">
      <defs>
       <path d="M 0 0 
L -3.5 0 
" id="m91de25dacd" style="stroke:#000000;stroke-width:0.8;"/>
      </defs>
      <g>
       <use style="stroke:#000000;stroke-width:0.8;" x="122.94" xlink:href="#m91de25dacd" y="378.502806"/>
      </g>
     </g>
     <g id="text_10">
      <!-- 0.35 -->
      <defs>
       <path d="M 10.6875 12.40625 
L 21 12.40625 
L 21 0 
L 10.6875 0 
z
" id="DejaVuSans-2e"/>
      </defs>
      <g transform="translate(93.674375 382.302025)scale(0.1 -0.1)">
       <use xlink:href="#DejaVuSans-30"/>
       <use x="63.623047" xlink:href="#DejaVuSans-2e"/>
       <use x="95.410156" xlink:href="#DejaVuSans-33"/>
       <use x="159.033203" xlink:href="#DejaVuSans-35"/>
      </g>
     </g>
    </g>
    <g id="ytick_2">
     <g id="line2d_19">
      <path clip-path="url(#pcfcbb9933d)" d="M 122.94 336.459619 
L 885.168 336.459619 
" style="fill:none;stroke:#b0b0b0;stroke-linecap:square;stroke-width:0.8;"/>
     </g>
     <g id="line2d_20">
      <g>
       <use style="stroke:#000000;stroke-width:0.8;" x="122.94" xlink:href="#m91de25dacd" y="336.459619"/>
      </g>
     </g>
     <g id="text_11">
      <!-- 0.40 -->
      <defs>
       <path d="M 37.796875 64.3125 
L 12.890625 25.390625 
L 37.796875 25.390625 
z
M 35.203125 72.90625 
L 47.609375 72.90625 
L 47.609375 25.390625 
L 58.015625 25.390625 
L 58.015625 17.1875 
L 47.609375 17.1875 
L 47.609375 0 
L 37.796875 0 
L 37.796875 17.1875 
L 4.890625 17.1875 
L 4.890625 26.703125 
z
" id="DejaVuSans-34"/>
      </defs>
      <g transform="translate(93.674375 340.258837)scale(0.1 -0.1)">
       <use xlink:href="#DejaVuSans-30"/>
       <use x="63.623047" xlink:href="#DejaVuSans-2e"/>
       <use x="95.410156" xlink:href="#DejaVuSans-34"/>
       <use x="159.033203" xlink:href="#DejaVuSans-30"/>
      </g>
     </g>
    </g>
    <g id="ytick_3">
     <g id="line2d_21">
      <path clip-path="url(#pcfcbb9933d)" d="M 122.94 294.416431 
L 885.168 294.416431 
" style="fill:none;stroke:#b0b0b0;stroke-linecap:square;stroke-width:0.8;"/>
     </g>
     <g id="line2d_22">
      <g>
       <use style="stroke:#000000;stroke-width:0.8;" x="122.94" xlink:href="#m91de25dacd" y="294.416431"/>
      </g>
     </g>
     <g id="text_12">
      <!-- 0.45 -->
      <g transform="translate(93.674375 298.21565)scale(0.1 -0.1)">
       <use xlink:href="#DejaVuSans-30"/>
       <use x="63.623047" xlink:href="#DejaVuSans-2e"/>
       <use x="95.410156" xlink:href="#DejaVuSans-34"/>
       <use x="159.033203" xlink:href="#DejaVuSans-35"/>
      </g>
     </g>
    </g>
    <g id="ytick_4">
     <g id="line2d_23">
      <path clip-path="url(#pcfcbb9933d)" d="M 122.94 252.373243 
L 885.168 252.373243 
" style="fill:none;stroke:#b0b0b0;stroke-linecap:square;stroke-width:0.8;"/>
     </g>
     <g id="line2d_24">
      <g>
       <use style="stroke:#000000;stroke-width:0.8;" x="122.94" xlink:href="#m91de25dacd" y="252.373243"/>
      </g>
     </g>
     <g id="text_13">
      <!-- 0.50 -->
      <g transform="translate(93.674375 256.172462)scale(0.1 -0.1)">
       <use xlink:href="#DejaVuSans-30"/>
       <use x="63.623047" xlink:href="#DejaVuSans-2e"/>
       <use x="95.410156" xlink:href="#DejaVuSans-35"/>
       <use x="159.033203" xlink:href="#DejaVuSans-30"/>
      </g>
     </g>
    </g>
    <g id="ytick_5">
     <g id="line2d_25">
      <path clip-path="url(#pcfcbb9933d)" d="M 122.94 210.330056 
L 885.168 210.330056 
" style="fill:none;stroke:#b0b0b0;stroke-linecap:square;stroke-width:0.8;"/>
     </g>
     <g id="line2d_26">
      <g>
       <use style="stroke:#000000;stroke-width:0.8;" x="122.94" xlink:href="#m91de25dacd" y="210.330056"/>
      </g>
     </g>
     <g id="text_14">
      <!-- 0.55 -->
      <g transform="translate(93.674375 214.129274)scale(0.1 -0.1)">
       <use xlink:href="#DejaVuSans-30"/>
       <use x="63.623047" xlink:href="#DejaVuSans-2e"/>
       <use x="95.410156" xlink:href="#DejaVuSans-35"/>
       <use x="159.033203" xlink:href="#DejaVuSans-35"/>
      </g>
     </g>
    </g>
    <g id="ytick_6">
     <g id="line2d_27">
      <path clip-path="url(#pcfcbb9933d)" d="M 122.94 168.286868 
L 885.168 168.286868 
" style="fill:none;stroke:#b0b0b0;stroke-linecap:square;stroke-width:0.8;"/>
     </g>
     <g id="line2d_28">
      <g>
       <use style="stroke:#000000;stroke-width:0.8;" x="122.94" xlink:href="#m91de25dacd" y="168.286868"/>
      </g>
     </g>
     <g id="text_15">
      <!-- 0.60 -->
      <defs>
       <path d="M 33.015625 40.375 
Q 26.375 40.375 22.484375 35.828125 
Q 18.609375 31.296875 18.609375 23.390625 
Q 18.609375 15.53125 22.484375 10.953125 
Q 26.375 6.390625 33.015625 6.390625 
Q 39.65625 6.390625 43.53125 10.953125 
Q 47.40625 15.53125 47.40625 23.390625 
Q 47.40625 31.296875 43.53125 35.828125 
Q 39.65625 40.375 33.015625 40.375 
M 52.59375 71.296875 
L 52.59375 62.3125 
Q 48.875 64.0625 45.09375 64.984375 
Q 41.3125 65.921875 37.59375 65.921875 
Q 27.828125 65.921875 22.671875 59.328125 
Q 17.53125 52.734375 16.796875 39.40625 
Q 19.671875 43.65625 24.015625 45.921875 
Q 28.375 48.1875 33.59375 48.1875 
Q 44.578125 48.1875 50.953125 41.515625 
Q 57.328125 34.859375 57.328125 23.390625 
Q 57.328125 12.15625 50.6875 5.359375 
Q 44.046875 -1.421875 33.015625 -1.421875 
Q 20.359375 -1.421875 13.671875 8.265625 
Q 6.984375 17.96875 6.984375 36.375 
Q 6.984375 53.65625 15.1875 63.9375 
Q 23.390625 74.21875 37.203125 74.21875 
Q 40.921875 74.21875 44.703125 73.484375 
Q 48.484375 72.75 52.59375 71.296875 
" id="DejaVuSans-36"/>
      </defs>
      <g transform="translate(93.674375 172.086087)scale(0.1 -0.1)">
       <use xlink:href="#DejaVuSans-30"/>
       <use x="63.623047" xlink:href="#DejaVuSans-2e"/>
       <use x="95.410156" xlink:href="#DejaVuSans-36"/>
       <use x="159.033203" xlink:href="#DejaVuSans-30"/>
      </g>
     </g>
    </g>
    <g id="ytick_7">
     <g id="line2d_29">
      <path clip-path="url(#pcfcbb9933d)" d="M 122.94 126.24368 
L 885.168 126.24368 
" style="fill:none;stroke:#b0b0b0;stroke-linecap:square;stroke-width:0.8;"/>
     </g>
     <g id="line2d_30">
      <g>
       <use style="stroke:#000000;stroke-width:0.8;" x="122.94" xlink:href="#m91de25dacd" y="126.24368"/>
      </g>
     </g>
     <g id="text_16">
      <!-- 0.65 -->
      <g transform="translate(93.674375 130.042899)scale(0.1 -0.1)">
       <use xlink:href="#DejaVuSans-30"/>
       <use x="63.623047" xlink:href="#DejaVuSans-2e"/>
       <use x="95.410156" xlink:href="#DejaVuSans-36"/>
       <use x="159.033203" xlink:href="#DejaVuSans-35"/>
      </g>
     </g>
    </g>
    <g id="ytick_8">
     <g id="line2d_31">
      <path clip-path="url(#pcfcbb9933d)" d="M 122.94 84.200493 
L 885.168 84.200493 
" style="fill:none;stroke:#b0b0b0;stroke-linecap:square;stroke-width:0.8;"/>
     </g>
     <g id="line2d_32">
      <g>
       <use style="stroke:#000000;stroke-width:0.8;" x="122.94" xlink:href="#m91de25dacd" y="84.200493"/>
      </g>
     </g>
     <g id="text_17">
      <!-- 0.70 -->
      <defs>
       <path d="M 8.203125 72.90625 
L 55.078125 72.90625 
L 55.078125 68.703125 
L 28.609375 0 
L 18.3125 0 
L 43.21875 64.59375 
L 8.203125 64.59375 
z
" id="DejaVuSans-37"/>
      </defs>
      <g transform="translate(93.674375 87.999711)scale(0.1 -0.1)">
       <use xlink:href="#DejaVuSans-30"/>
       <use x="63.623047" xlink:href="#DejaVuSans-2e"/>
       <use x="95.410156" xlink:href="#DejaVuSans-37"/>
       <use x="159.033203" xlink:href="#DejaVuSans-30"/>
      </g>
     </g>
    </g>
    <g id="text_18">
     <!-- FG_PCT -->
     <defs>
      <path d="M 9.8125 72.90625 
L 51.703125 72.90625 
L 51.703125 64.59375 
L 19.671875 64.59375 
L 19.671875 43.109375 
L 48.578125 43.109375 
L 48.578125 34.8125 
L 19.671875 34.8125 
L 19.671875 0 
L 9.8125 0 
z
" id="DejaVuSans-46"/>
      <path d="M 59.515625 10.40625 
L 59.515625 29.984375 
L 43.40625 29.984375 
L 43.40625 38.09375 
L 69.28125 38.09375 
L 69.28125 6.78125 
Q 63.578125 2.734375 56.6875 0.65625 
Q 49.8125 -1.421875 42 -1.421875 
Q 24.90625 -1.421875 15.25 8.5625 
Q 5.609375 18.5625 5.609375 36.375 
Q 5.609375 54.25 15.25 64.234375 
Q 24.90625 74.21875 42 74.21875 
Q 49.125 74.21875 55.546875 72.453125 
Q 61.96875 70.703125 67.390625 67.28125 
L 67.390625 56.78125 
Q 61.921875 61.421875 55.765625 63.765625 
Q 49.609375 66.109375 42.828125 66.109375 
Q 29.4375 66.109375 22.71875 58.640625 
Q 16.015625 51.171875 16.015625 36.375 
Q 16.015625 21.625 22.71875 14.15625 
Q 29.4375 6.6875 42.828125 6.6875 
Q 48.046875 6.6875 52.140625 7.59375 
Q 56.25 8.5 59.515625 10.40625 
" id="DejaVuSans-47"/>
      <path d="M 50.984375 -16.609375 
L 50.984375 -23.578125 
L -0.984375 -23.578125 
L -0.984375 -16.609375 
z
" id="DejaVuSans-5f"/>
      <path d="M 64.40625 67.28125 
L 64.40625 56.890625 
Q 59.421875 61.53125 53.78125 63.8125 
Q 48.140625 66.109375 41.796875 66.109375 
Q 29.296875 66.109375 22.65625 58.46875 
Q 16.015625 50.828125 16.015625 36.375 
Q 16.015625 21.96875 22.65625 14.328125 
Q 29.296875 6.6875 41.796875 6.6875 
Q 48.140625 6.6875 53.78125 8.984375 
Q 59.421875 11.28125 64.40625 15.921875 
L 64.40625 5.609375 
Q 59.234375 2.09375 53.4375 0.328125 
Q 47.65625 -1.421875 41.21875 -1.421875 
Q 24.65625 -1.421875 15.125 8.703125 
Q 5.609375 18.84375 5.609375 36.375 
Q 5.609375 53.953125 15.125 64.078125 
Q 24.65625 74.21875 41.21875 74.21875 
Q 47.75 74.21875 53.53125 72.484375 
Q 59.328125 70.75 64.40625 67.28125 
" id="DejaVuSans-43"/>
     </defs>
     <g transform="translate(87.316563 254.786556)rotate(-90)scale(0.1 -0.1)">
      <use xlink:href="#DejaVuSans-46"/>
      <use x="57.519531" xlink:href="#DejaVuSans-47"/>
      <use x="135.009766" xlink:href="#DejaVuSans-5f"/>
      <use x="185.009766" xlink:href="#DejaVuSans-50"/>
      <use x="245.3125" xlink:href="#DejaVuSans-43"/>
      <use x="315.136719" xlink:href="#DejaVuSans-54"/>
     </g>
    </g>
   </g>
   <g id="line2d_33">
    <defs>
     <path d="M 0 -3 
L -0.673542 -0.927051 
L -2.85317 -0.927051 
L -1.089814 0.354102 
L -1.763356 2.427051 
L -0 1.145898 
L 1.763356 2.427051 
L 1.089814 0.354102 
L 2.85317 -0.927051 
L 0.673542 -0.927051 
z
" id="m1566b61ca1" style="stroke:#0000ff;stroke-linejoin:bevel;"/>
    </defs>
    <g clip-path="url(#pcfcbb9933d)">
     <use style="fill:#0000ff;stroke:#0000ff;stroke-linejoin:bevel;" x="772.38622" xlink:href="#m1566b61ca1" y="315.438025"/>
     <use style="fill:#0000ff;stroke:#0000ff;stroke-linejoin:bevel;" x="720.98158" xlink:href="#m1566b61ca1" y="302.825068"/>
     <use style="fill:#0000ff;stroke:#0000ff;stroke-linejoin:bevel;" x="716.869209" xlink:href="#m1566b61ca1" y="283.485202"/>
     <use style="fill:#0000ff;stroke:#0000ff;stroke-linejoin:bevel;" x="698.363539" xlink:href="#m1566b61ca1" y="248.168924"/>
     <use style="fill:#0000ff;stroke:#0000ff;stroke-linejoin:bevel;" x="683.97024" xlink:href="#m1566b61ca1" y="280.121747"/>
     <use style="fill:#0000ff;stroke:#0000ff;stroke-linejoin:bevel;" x="677.801683" xlink:href="#m1566b61ca1" y="299.461613"/>
     <use style="fill:#0000ff;stroke:#0000ff;stroke-linejoin:bevel;" x="677.801683" xlink:href="#m1566b61ca1" y="292.734703"/>
     <use style="fill:#0000ff;stroke:#0000ff;stroke-linejoin:bevel;" x="665.464569" xlink:href="#m1566b61ca1" y="212.011783"/>
     <use style="fill:#0000ff;stroke:#0000ff;stroke-linejoin:bevel;" x="646.958899" xlink:href="#m1566b61ca1" y="264.986199"/>
     <use style="fill:#0000ff;stroke:#0000ff;stroke-linejoin:bevel;" x="642.846528" xlink:href="#m1566b61ca1" y="279.280883"/>
     <use style="fill:#0000ff;stroke:#0000ff;stroke-linejoin:bevel;" x="640.790342" xlink:href="#m1566b61ca1" y="275.076565"/>
     <use style="fill:#0000ff;stroke:#0000ff;stroke-linejoin:bevel;" x="638.734156" xlink:href="#m1566b61ca1" y="217.056966"/>
     <use style="fill:#0000ff;stroke:#0000ff;stroke-linejoin:bevel;" x="638.734156" xlink:href="#m1566b61ca1" y="221.261284"/>
     <use style="fill:#0000ff;stroke:#0000ff;stroke-linejoin:bevel;" x="614.059929" xlink:href="#m1566b61ca1" y="290.212112"/>
     <use style="fill:#0000ff;stroke:#0000ff;stroke-linejoin:bevel;" x="609.947558" xlink:href="#m1566b61ca1" y="285.16693"/>
     <use style="fill:#0000ff;stroke:#0000ff;stroke-linejoin:bevel;" x="607.891373" xlink:href="#m1566b61ca1" y="292.734703"/>
     <use style="fill:#0000ff;stroke:#0000ff;stroke-linejoin:bevel;" x="599.66663" xlink:href="#m1566b61ca1" y="299.461613"/>
     <use style="fill:#0000ff;stroke:#0000ff;stroke-linejoin:bevel;" x="597.610445" xlink:href="#m1566b61ca1" y="293.575567"/>
     <use style="fill:#0000ff;stroke:#0000ff;stroke-linejoin:bevel;" x="597.610445" xlink:href="#m1566b61ca1" y="267.508791"/>
     <use style="fill:#0000ff;stroke:#0000ff;stroke-linejoin:bevel;" x="595.554259" xlink:href="#m1566b61ca1" y="269.190518"/>
     <use style="fill:#0000ff;stroke:#0000ff;stroke-linejoin:bevel;" x="593.498073" xlink:href="#m1566b61ca1" y="234.715104"/>
     <use style="fill:#0000ff;stroke:#0000ff;stroke-linejoin:bevel;" x="583.217145" xlink:href="#m1566b61ca1" y="308.711115"/>
     <use style="fill:#0000ff;stroke:#0000ff;stroke-linejoin:bevel;" x="583.217145" xlink:href="#m1566b61ca1" y="282.644338"/>
     <use style="fill:#0000ff;stroke:#0000ff;stroke-linejoin:bevel;" x="581.16096" xlink:href="#m1566b61ca1" y="279.280883"/>
     <use style="fill:#0000ff;stroke:#0000ff;stroke-linejoin:bevel;" x="577.048589" xlink:href="#m1566b61ca1" y="317.119752"/>
     <use style="fill:#0000ff;stroke:#0000ff;stroke-linejoin:bevel;" x="572.936217" xlink:href="#m1566b61ca1" y="276.758292"/>
     <use style="fill:#0000ff;stroke:#0000ff;stroke-linejoin:bevel;" x="566.767661" xlink:href="#m1566b61ca1" y="258.259289"/>
     <use style="fill:#0000ff;stroke:#0000ff;stroke-linejoin:bevel;" x="556.486733" xlink:href="#m1566b61ca1" y="307.870251"/>
     <use style="fill:#0000ff;stroke:#0000ff;stroke-linejoin:bevel;" x="544.149619" xlink:href="#m1566b61ca1" y="274.235701"/>
     <use style="fill:#0000ff;stroke:#0000ff;stroke-linejoin:bevel;" x="544.149619" xlink:href="#m1566b61ca1" y="286.007793"/>
     <use style="fill:#0000ff;stroke:#0000ff;stroke-linejoin:bevel;" x="540.037248" xlink:href="#m1566b61ca1" y="273.394837"/>
     <use style="fill:#0000ff;stroke:#0000ff;stroke-linejoin:bevel;" x="523.587763" xlink:href="#m1566b61ca1" y="286.848657"/>
     <use style="fill:#0000ff;stroke:#0000ff;stroke-linejoin:bevel;" x="517.419206" xlink:href="#m1566b61ca1" y="279.280883"/>
     <use style="fill:#0000ff;stroke:#0000ff;stroke-linejoin:bevel;" x="513.306835" xlink:href="#m1566b61ca1" y="313.756297"/>
     <use style="fill:#0000ff;stroke:#0000ff;stroke-linejoin:bevel;" x="498.913536" xlink:href="#m1566b61ca1" y="307.870251"/>
     <use style="fill:#0000ff;stroke:#0000ff;stroke-linejoin:bevel;" x="496.85735" xlink:href="#m1566b61ca1" y="296.939022"/>
     <use style="fill:#0000ff;stroke:#0000ff;stroke-linejoin:bevel;" x="494.801165" xlink:href="#m1566b61ca1" y="294.416431"/>
     <use style="fill:#0000ff;stroke:#0000ff;stroke-linejoin:bevel;" x="494.801165" xlink:href="#m1566b61ca1" y="272.553973"/>
     <use style="fill:#0000ff;stroke:#0000ff;stroke-linejoin:bevel;" x="494.801165" xlink:href="#m1566b61ca1" y="301.143341"/>
     <use style="fill:#0000ff;stroke:#0000ff;stroke-linejoin:bevel;" x="492.744979" xlink:href="#m1566b61ca1" y="276.758292"/>
     <use style="fill:#0000ff;stroke:#0000ff;stroke-linejoin:bevel;" x="490.688794" xlink:href="#m1566b61ca1" y="293.575567"/>
     <use style="fill:#0000ff;stroke:#0000ff;stroke-linejoin:bevel;" x="482.464051" xlink:href="#m1566b61ca1" y="312.07457"/>
     <use style="fill:#0000ff;stroke:#0000ff;stroke-linejoin:bevel;" x="478.35168" xlink:href="#m1566b61ca1" y="271.71311"/>
     <use style="fill:#0000ff;stroke:#0000ff;stroke-linejoin:bevel;" x="476.295494" xlink:href="#m1566b61ca1" y="303.665932"/>
     <use style="fill:#0000ff;stroke:#0000ff;stroke-linejoin:bevel;" x="472.183123" xlink:href="#m1566b61ca1" y="204.444009"/>
     <use style="fill:#0000ff;stroke:#0000ff;stroke-linejoin:bevel;" x="466.014566" xlink:href="#m1566b61ca1" y="186.78587"/>
     <use style="fill:#0000ff;stroke:#0000ff;stroke-linejoin:bevel;" x="455.733639" xlink:href="#m1566b61ca1" y="331.414436"/>
     <use style="fill:#0000ff;stroke:#0000ff;stroke-linejoin:bevel;" x="453.677453" xlink:href="#m1566b61ca1" y="268.349654"/>
     <use style="fill:#0000ff;stroke:#0000ff;stroke-linejoin:bevel;" x="449.565082" xlink:href="#m1566b61ca1" y="301.143341"/>
     <use style="fill:#0000ff;stroke:#0000ff;stroke-linejoin:bevel;" x="445.452711" xlink:href="#m1566b61ca1" y="285.16693"/>
     <use style="fill:#0000ff;stroke:#0000ff;stroke-linejoin:bevel;" x="443.396525" xlink:href="#m1566b61ca1" y="332.2553"/>
     <use style="fill:#0000ff;stroke:#0000ff;stroke-linejoin:bevel;" x="439.284154" xlink:href="#m1566b61ca1" y="291.052976"/>
     <use style="fill:#0000ff;stroke:#0000ff;stroke-linejoin:bevel;" x="437.227968" xlink:href="#m1566b61ca1" y="301.143341"/>
     <use style="fill:#0000ff;stroke:#0000ff;stroke-linejoin:bevel;" x="433.115597" xlink:href="#m1566b61ca1" y="333.937027"/>
     <use style="fill:#0000ff;stroke:#0000ff;stroke-linejoin:bevel;" x="431.059411" xlink:href="#m1566b61ca1" y="298.62075"/>
     <use style="fill:#0000ff;stroke:#0000ff;stroke-linejoin:bevel;" x="426.94704" xlink:href="#m1566b61ca1" y="269.190518"/>
     <use style="fill:#0000ff;stroke:#0000ff;stroke-linejoin:bevel;" x="424.890855" xlink:href="#m1566b61ca1" y="298.62075"/>
     <use style="fill:#0000ff;stroke:#0000ff;stroke-linejoin:bevel;" x="422.834669" xlink:href="#m1566b61ca1" y="279.280883"/>
     <use style="fill:#0000ff;stroke:#0000ff;stroke-linejoin:bevel;" x="420.778483" xlink:href="#m1566b61ca1" y="243.123742"/>
     <use style="fill:#0000ff;stroke:#0000ff;stroke-linejoin:bevel;" x="420.778483" xlink:href="#m1566b61ca1" y="290.212112"/>
     <use style="fill:#0000ff;stroke:#0000ff;stroke-linejoin:bevel;" x="418.722298" xlink:href="#m1566b61ca1" y="256.577562"/>
     <use style="fill:#0000ff;stroke:#0000ff;stroke-linejoin:bevel;" x="416.666112" xlink:href="#m1566b61ca1" y="214.534374"/>
     <use style="fill:#0000ff;stroke:#0000ff;stroke-linejoin:bevel;" x="412.553741" xlink:href="#m1566b61ca1" y="295.257295"/>
     <use style="fill:#0000ff;stroke:#0000ff;stroke-linejoin:bevel;" x="410.497555" xlink:href="#m1566b61ca1" y="116.994179"/>
     <use style="fill:#0000ff;stroke:#0000ff;stroke-linejoin:bevel;" x="410.497555" xlink:href="#m1566b61ca1" y="275.076565"/>
     <use style="fill:#0000ff;stroke:#0000ff;stroke-linejoin:bevel;" x="410.497555" xlink:href="#m1566b61ca1" y="321.324071"/>
     <use style="fill:#0000ff;stroke:#0000ff;stroke-linejoin:bevel;" x="410.497555" xlink:href="#m1566b61ca1" y="288.530385"/>
     <use style="fill:#0000ff;stroke:#0000ff;stroke-linejoin:bevel;" x="408.44137" xlink:href="#m1566b61ca1" y="283.485202"/>
     <use style="fill:#0000ff;stroke:#0000ff;stroke-linejoin:bevel;" x="406.385184" xlink:href="#m1566b61ca1" y="337.300482"/>
     <use style="fill:#0000ff;stroke:#0000ff;stroke-linejoin:bevel;" x="404.328999" xlink:href="#m1566b61ca1" y="298.62075"/>
     <use style="fill:#0000ff;stroke:#0000ff;stroke-linejoin:bevel;" x="404.328999" xlink:href="#m1566b61ca1" y="308.711115"/>
     <use style="fill:#0000ff;stroke:#0000ff;stroke-linejoin:bevel;" x="404.328999" xlink:href="#m1566b61ca1" y="300.302477"/>
     <use style="fill:#0000ff;stroke:#0000ff;stroke-linejoin:bevel;" x="402.272813" xlink:href="#m1566b61ca1" y="227.147331"/>
     <use style="fill:#0000ff;stroke:#0000ff;stroke-linejoin:bevel;" x="402.272813" xlink:href="#m1566b61ca1" y="321.324071"/>
     <use style="fill:#0000ff;stroke:#0000ff;stroke-linejoin:bevel;" x="400.216627" xlink:href="#m1566b61ca1" y="140.538364"/>
     <use style="fill:#0000ff;stroke:#0000ff;stroke-linejoin:bevel;" x="400.216627" xlink:href="#m1566b61ca1" y="342.345665"/>
     <use style="fill:#0000ff;stroke:#0000ff;stroke-linejoin:bevel;" x="398.160442" xlink:href="#m1566b61ca1" y="238.919423"/>
     <use style="fill:#0000ff;stroke:#0000ff;stroke-linejoin:bevel;" x="394.048071" xlink:href="#m1566b61ca1" y="272.553973"/>
     <use style="fill:#0000ff;stroke:#0000ff;stroke-linejoin:bevel;" x="394.048071" xlink:href="#m1566b61ca1" y="311.233706"/>
     <use style="fill:#0000ff;stroke:#0000ff;stroke-linejoin:bevel;" x="394.048071" xlink:href="#m1566b61ca1" y="262.463608"/>
     <use style="fill:#0000ff;stroke:#0000ff;stroke-linejoin:bevel;" x="391.991885" xlink:href="#m1566b61ca1" y="323.846662"/>
     <use style="fill:#0000ff;stroke:#0000ff;stroke-linejoin:bevel;" x="391.991885" xlink:href="#m1566b61ca1" y="310.392842"/>
     <use style="fill:#0000ff;stroke:#0000ff;stroke-linejoin:bevel;" x="387.879514" xlink:href="#m1566b61ca1" y="337.300482"/>
     <use style="fill:#0000ff;stroke:#0000ff;stroke-linejoin:bevel;" x="385.823328" xlink:href="#m1566b61ca1" y="327.210117"/>
     <use style="fill:#0000ff;stroke:#0000ff;stroke-linejoin:bevel;" x="385.823328" xlink:href="#m1566b61ca1" y="270.031382"/>
     <use style="fill:#0000ff;stroke:#0000ff;stroke-linejoin:bevel;" x="385.823328" xlink:href="#m1566b61ca1" y="268.349654"/>
     <use style="fill:#0000ff;stroke:#0000ff;stroke-linejoin:bevel;" x="385.823328" xlink:href="#m1566b61ca1" y="276.758292"/>
     <use style="fill:#0000ff;stroke:#0000ff;stroke-linejoin:bevel;" x="383.767143" xlink:href="#m1566b61ca1" y="291.052976"/>
     <use style="fill:#0000ff;stroke:#0000ff;stroke-linejoin:bevel;" x="383.767143" xlink:href="#m1566b61ca1" y="72.4284"/>
     <use style="fill:#0000ff;stroke:#0000ff;stroke-linejoin:bevel;" x="383.767143" xlink:href="#m1566b61ca1" y="329.732708"/>
     <use style="fill:#0000ff;stroke:#0000ff;stroke-linejoin:bevel;" x="381.710957" xlink:href="#m1566b61ca1" y="132.129726"/>
     <use style="fill:#0000ff;stroke:#0000ff;stroke-linejoin:bevel;" x="377.598586" xlink:href="#m1566b61ca1" y="250.691516"/>
     <use style="fill:#0000ff;stroke:#0000ff;stroke-linejoin:bevel;" x="375.5424" xlink:href="#m1566b61ca1" y="325.52839"/>
     <use style="fill:#0000ff;stroke:#0000ff;stroke-linejoin:bevel;" x="369.373844" xlink:href="#m1566b61ca1" y="301.143341"/>
     <use style="fill:#0000ff;stroke:#0000ff;stroke-linejoin:bevel;" x="369.373844" xlink:href="#m1566b61ca1" y="204.444009"/>
     <use style="fill:#0000ff;stroke:#0000ff;stroke-linejoin:bevel;" x="363.205287" xlink:href="#m1566b61ca1" y="224.624739"/>
     <use style="fill:#0000ff;stroke:#0000ff;stroke-linejoin:bevel;" x="363.205287" xlink:href="#m1566b61ca1" y="328.891845"/>
     <use style="fill:#0000ff;stroke:#0000ff;stroke-linejoin:bevel;" x="363.205287" xlink:href="#m1566b61ca1" y="337.300482"/>
     <use style="fill:#0000ff;stroke:#0000ff;stroke-linejoin:bevel;" x="354.980544" xlink:href="#m1566b61ca1" y="192.671917"/>
     <use style="fill:#0000ff;stroke:#0000ff;stroke-linejoin:bevel;" x="352.924359" xlink:href="#m1566b61ca1" y="317.960616"/>
     <use style="fill:#0000ff;stroke:#0000ff;stroke-linejoin:bevel;" x="350.868173" xlink:href="#m1566b61ca1" y="334.777891"/>
     <use style="fill:#0000ff;stroke:#0000ff;stroke-linejoin:bevel;" x="348.811988" xlink:href="#m1566b61ca1" y="305.34766"/>
     <use style="fill:#0000ff;stroke:#0000ff;stroke-linejoin:bevel;" x="348.811988" xlink:href="#m1566b61ca1" y="229.669922"/>
     <use style="fill:#0000ff;stroke:#0000ff;stroke-linejoin:bevel;" x="348.811988" xlink:href="#m1566b61ca1" y="328.891845"/>
     <use style="fill:#0000ff;stroke:#0000ff;stroke-linejoin:bevel;" x="348.811988" xlink:href="#m1566b61ca1" y="304.506796"/>
     <use style="fill:#0000ff;stroke:#0000ff;stroke-linejoin:bevel;" x="344.699616" xlink:href="#m1566b61ca1" y="239.760287"/>
     <use style="fill:#0000ff;stroke:#0000ff;stroke-linejoin:bevel;" x="344.699616" xlink:href="#m1566b61ca1" y="289.371248"/>
     <use style="fill:#0000ff;stroke:#0000ff;stroke-linejoin:bevel;" x="344.699616" xlink:href="#m1566b61ca1" y="185.945007"/>
     <use style="fill:#0000ff;stroke:#0000ff;stroke-linejoin:bevel;" x="342.643431" xlink:href="#m1566b61ca1" y="307.870251"/>
     <use style="fill:#0000ff;stroke:#0000ff;stroke-linejoin:bevel;" x="342.643431" xlink:href="#m1566b61ca1" y="279.280883"/>
     <use style="fill:#0000ff;stroke:#0000ff;stroke-linejoin:bevel;" x="340.587245" xlink:href="#m1566b61ca1" y="325.52839"/>
     <use style="fill:#0000ff;stroke:#0000ff;stroke-linejoin:bevel;" x="340.587245" xlink:href="#m1566b61ca1" y="370.935032"/>
     <use style="fill:#0000ff;stroke:#0000ff;stroke-linejoin:bevel;" x="340.587245" xlink:href="#m1566b61ca1" y="314.597161"/>
     <use style="fill:#0000ff;stroke:#0000ff;stroke-linejoin:bevel;" x="338.53106" xlink:href="#m1566b61ca1" y="312.07457"/>
     <use style="fill:#0000ff;stroke:#0000ff;stroke-linejoin:bevel;" x="338.53106" xlink:href="#m1566b61ca1" y="323.005798"/>
     <use style="fill:#0000ff;stroke:#0000ff;stroke-linejoin:bevel;" x="336.474874" xlink:href="#m1566b61ca1" y="222.102148"/>
     <use style="fill:#0000ff;stroke:#0000ff;stroke-linejoin:bevel;" x="336.474874" xlink:href="#m1566b61ca1" y="258.259289"/>
     <use style="fill:#0000ff;stroke:#0000ff;stroke-linejoin:bevel;" x="334.418688" xlink:href="#m1566b61ca1" y="192.671917"/>
     <use style="fill:#0000ff;stroke:#0000ff;stroke-linejoin:bevel;" x="332.362503" xlink:href="#m1566b61ca1" y="269.190518"/>
     <use style="fill:#0000ff;stroke:#0000ff;stroke-linejoin:bevel;" x="332.362503" xlink:href="#m1566b61ca1" y="288.530385"/>
     <use style="fill:#0000ff;stroke:#0000ff;stroke-linejoin:bevel;" x="332.362503" xlink:href="#m1566b61ca1" y="321.324071"/>
     <use style="fill:#0000ff;stroke:#0000ff;stroke-linejoin:bevel;" x="332.362503" xlink:href="#m1566b61ca1" y="246.487197"/>
     <use style="fill:#0000ff;stroke:#0000ff;stroke-linejoin:bevel;" x="330.306317" xlink:href="#m1566b61ca1" y="280.962611"/>
     <use style="fill:#0000ff;stroke:#0000ff;stroke-linejoin:bevel;" x="330.306317" xlink:href="#m1566b61ca1" y="282.644338"/>
     <use style="fill:#0000ff;stroke:#0000ff;stroke-linejoin:bevel;" x="328.250132" xlink:href="#m1566b61ca1" y="249.850652"/>
     <use style="fill:#0000ff;stroke:#0000ff;stroke-linejoin:bevel;" x="328.250132" xlink:href="#m1566b61ca1" y="238.919423"/>
     <use style="fill:#0000ff;stroke:#0000ff;stroke-linejoin:bevel;" x="328.250132" xlink:href="#m1566b61ca1" y="250.691516"/>
     <use style="fill:#0000ff;stroke:#0000ff;stroke-linejoin:bevel;" x="326.193946" xlink:href="#m1566b61ca1" y="267.508791"/>
     <use style="fill:#0000ff;stroke:#0000ff;stroke-linejoin:bevel;" x="326.193946" xlink:href="#m1566b61ca1" y="333.096163"/>
     <use style="fill:#0000ff;stroke:#0000ff;stroke-linejoin:bevel;" x="326.193946" xlink:href="#m1566b61ca1" y="291.052976"/>
     <use style="fill:#0000ff;stroke:#0000ff;stroke-linejoin:bevel;" x="322.081575" xlink:href="#m1566b61ca1" y="286.007793"/>
     <use style="fill:#0000ff;stroke:#0000ff;stroke-linejoin:bevel;" x="320.025389" xlink:href="#m1566b61ca1" y="212.011783"/>
     <use style="fill:#0000ff;stroke:#0000ff;stroke-linejoin:bevel;" x="320.025389" xlink:href="#m1566b61ca1" y="288.530385"/>
     <use style="fill:#0000ff;stroke:#0000ff;stroke-linejoin:bevel;" x="317.969204" xlink:href="#m1566b61ca1" y="319.642343"/>
     <use style="fill:#0000ff;stroke:#0000ff;stroke-linejoin:bevel;" x="317.969204" xlink:href="#m1566b61ca1" y="302.825068"/>
     <use style="fill:#0000ff;stroke:#0000ff;stroke-linejoin:bevel;" x="317.969204" xlink:href="#m1566b61ca1" y="339.823074"/>
     <use style="fill:#0000ff;stroke:#0000ff;stroke-linejoin:bevel;" x="315.913018" xlink:href="#m1566b61ca1" y="334.777891"/>
     <use style="fill:#0000ff;stroke:#0000ff;stroke-linejoin:bevel;" x="315.913018" xlink:href="#m1566b61ca1" y="303.665932"/>
     <use style="fill:#0000ff;stroke:#0000ff;stroke-linejoin:bevel;" x="313.856832" xlink:href="#m1566b61ca1" y="292.734703"/>
     <use style="fill:#0000ff;stroke:#0000ff;stroke-linejoin:bevel;" x="311.800647" xlink:href="#m1566b61ca1" y="341.504801"/>
     <use style="fill:#0000ff;stroke:#0000ff;stroke-linejoin:bevel;" x="311.800647" xlink:href="#m1566b61ca1" y="317.119752"/>
     <use style="fill:#0000ff;stroke:#0000ff;stroke-linejoin:bevel;" x="311.800647" xlink:href="#m1566b61ca1" y="295.257295"/>
     <use style="fill:#0000ff;stroke:#0000ff;stroke-linejoin:bevel;" x="311.800647" xlink:href="#m1566b61ca1" y="271.71311"/>
     <use style="fill:#0000ff;stroke:#0000ff;stroke-linejoin:bevel;" x="311.800647" xlink:href="#m1566b61ca1" y="306.188523"/>
     <use style="fill:#0000ff;stroke:#0000ff;stroke-linejoin:bevel;" x="311.800647" xlink:href="#m1566b61ca1" y="299.461613"/>
     <use style="fill:#0000ff;stroke:#0000ff;stroke-linejoin:bevel;" x="309.744461" xlink:href="#m1566b61ca1" y="287.689521"/>
     <use style="fill:#0000ff;stroke:#0000ff;stroke-linejoin:bevel;" x="309.744461" xlink:href="#m1566b61ca1" y="153.992184"/>
     <use style="fill:#0000ff;stroke:#0000ff;stroke-linejoin:bevel;" x="309.744461" xlink:href="#m1566b61ca1" y="124.561953"/>
     <use style="fill:#0000ff;stroke:#0000ff;stroke-linejoin:bevel;" x="309.744461" xlink:href="#m1566b61ca1" y="285.16693"/>
     <use style="fill:#0000ff;stroke:#0000ff;stroke-linejoin:bevel;" x="307.688276" xlink:href="#m1566b61ca1" y="242.282878"/>
     <use style="fill:#0000ff;stroke:#0000ff;stroke-linejoin:bevel;" x="307.688276" xlink:href="#m1566b61ca1" y="314.597161"/>
     <use style="fill:#0000ff;stroke:#0000ff;stroke-linejoin:bevel;" x="307.688276" xlink:href="#m1566b61ca1" y="296.939022"/>
     <use style="fill:#0000ff;stroke:#0000ff;stroke-linejoin:bevel;" x="305.63209" xlink:href="#m1566b61ca1" y="252.373243"/>
     <use style="fill:#0000ff;stroke:#0000ff;stroke-linejoin:bevel;" x="305.63209" xlink:href="#m1566b61ca1" y="336.459619"/>
     <use style="fill:#0000ff;stroke:#0000ff;stroke-linejoin:bevel;" x="301.519719" xlink:href="#m1566b61ca1" y="342.345665"/>
     <use style="fill:#0000ff;stroke:#0000ff;stroke-linejoin:bevel;" x="301.519719" xlink:href="#m1566b61ca1" y="298.62075"/>
     <use style="fill:#0000ff;stroke:#0000ff;stroke-linejoin:bevel;" x="301.519719" xlink:href="#m1566b61ca1" y="307.870251"/>
     <use style="fill:#0000ff;stroke:#0000ff;stroke-linejoin:bevel;" x="297.407348" xlink:href="#m1566b61ca1" y="290.212112"/>
     <use style="fill:#0000ff;stroke:#0000ff;stroke-linejoin:bevel;" x="297.407348" xlink:href="#m1566b61ca1" y="300.302477"/>
     <use style="fill:#0000ff;stroke:#0000ff;stroke-linejoin:bevel;" x="295.351162" xlink:href="#m1566b61ca1" y="302.825068"/>
     <use style="fill:#0000ff;stroke:#0000ff;stroke-linejoin:bevel;" x="295.351162" xlink:href="#m1566b61ca1" y="295.257295"/>
     <use style="fill:#0000ff;stroke:#0000ff;stroke-linejoin:bevel;" x="291.238791" xlink:href="#m1566b61ca1" y="358.322076"/>
     <use style="fill:#0000ff;stroke:#0000ff;stroke-linejoin:bevel;" x="291.238791" xlink:href="#m1566b61ca1" y="227.988194"/>
     <use style="fill:#0000ff;stroke:#0000ff;stroke-linejoin:bevel;" x="289.182605" xlink:href="#m1566b61ca1" y="227.147331"/>
     <use style="fill:#0000ff;stroke:#0000ff;stroke-linejoin:bevel;" x="289.182605" xlink:href="#m1566b61ca1" y="311.233706"/>
     <use style="fill:#0000ff;stroke:#0000ff;stroke-linejoin:bevel;" x="289.182605" xlink:href="#m1566b61ca1" y="253.214107"/>
     <use style="fill:#0000ff;stroke:#0000ff;stroke-linejoin:bevel;" x="289.182605" xlink:href="#m1566b61ca1" y="168.286868"/>
     <use style="fill:#0000ff;stroke:#0000ff;stroke-linejoin:bevel;" x="287.12642" xlink:href="#m1566b61ca1" y="341.504801"/>
     <use style="fill:#0000ff;stroke:#0000ff;stroke-linejoin:bevel;" x="287.12642" xlink:href="#m1566b61ca1" y="254.895834"/>
     <use style="fill:#0000ff;stroke:#0000ff;stroke-linejoin:bevel;" x="285.070234" xlink:href="#m1566b61ca1" y="353.276894"/>
     <use style="fill:#0000ff;stroke:#0000ff;stroke-linejoin:bevel;" x="285.070234" xlink:href="#m1566b61ca1" y="355.799485"/>
     <use style="fill:#0000ff;stroke:#0000ff;stroke-linejoin:bevel;" x="283.014049" xlink:href="#m1566b61ca1" y="329.732708"/>
     <use style="fill:#0000ff;stroke:#0000ff;stroke-linejoin:bevel;" x="283.014049" xlink:href="#m1566b61ca1" y="343.186529"/>
     <use style="fill:#0000ff;stroke:#0000ff;stroke-linejoin:bevel;" x="283.014049" xlink:href="#m1566b61ca1" y="316.278888"/>
     <use style="fill:#0000ff;stroke:#0000ff;stroke-linejoin:bevel;" x="280.957863" xlink:href="#m1566b61ca1" y="308.711115"/>
     <use style="fill:#0000ff;stroke:#0000ff;stroke-linejoin:bevel;" x="278.901677" xlink:href="#m1566b61ca1" y="344.868256"/>
     <use style="fill:#0000ff;stroke:#0000ff;stroke-linejoin:bevel;" x="278.901677" xlink:href="#m1566b61ca1" y="228.829058"/>
     <use style="fill:#0000ff;stroke:#0000ff;stroke-linejoin:bevel;" x="276.845492" xlink:href="#m1566b61ca1" y="344.868256"/>
     <use style="fill:#0000ff;stroke:#0000ff;stroke-linejoin:bevel;" x="276.845492" xlink:href="#m1566b61ca1" y="327.210117"/>
     <use style="fill:#0000ff;stroke:#0000ff;stroke-linejoin:bevel;" x="274.789306" xlink:href="#m1566b61ca1" y="334.777891"/>
     <use style="fill:#0000ff;stroke:#0000ff;stroke-linejoin:bevel;" x="272.733121" xlink:href="#m1566b61ca1" y="299.461613"/>
     <use style="fill:#0000ff;stroke:#0000ff;stroke-linejoin:bevel;" x="272.733121" xlink:href="#m1566b61ca1" y="343.186529"/>
     <use style="fill:#0000ff;stroke:#0000ff;stroke-linejoin:bevel;" x="272.733121" xlink:href="#m1566b61ca1" y="176.695505"/>
     <use style="fill:#0000ff;stroke:#0000ff;stroke-linejoin:bevel;" x="272.733121" xlink:href="#m1566b61ca1" y="318.80148"/>
     <use style="fill:#0000ff;stroke:#0000ff;stroke-linejoin:bevel;" x="270.676935" xlink:href="#m1566b61ca1" y="301.984205"/>
     <use style="fill:#0000ff;stroke:#0000ff;stroke-linejoin:bevel;" x="268.620749" xlink:href="#m1566b61ca1" y="333.937027"/>
     <use style="fill:#0000ff;stroke:#0000ff;stroke-linejoin:bevel;" x="268.620749" xlink:href="#m1566b61ca1" y="230.510786"/>
     <use style="fill:#0000ff;stroke:#0000ff;stroke-linejoin:bevel;" x="268.620749" xlink:href="#m1566b61ca1" y="370.935032"/>
     <use style="fill:#0000ff;stroke:#0000ff;stroke-linejoin:bevel;" x="268.620749" xlink:href="#m1566b61ca1" y="344.027392"/>
     <use style="fill:#0000ff;stroke:#0000ff;stroke-linejoin:bevel;" x="268.620749" xlink:href="#m1566b61ca1" y="316.278888"/>
     <use style="fill:#0000ff;stroke:#0000ff;stroke-linejoin:bevel;" x="268.620749" xlink:href="#m1566b61ca1" y="301.143341"/>
     <use style="fill:#0000ff;stroke:#0000ff;stroke-linejoin:bevel;" x="268.620749" xlink:href="#m1566b61ca1" y="292.734703"/>
     <use style="fill:#0000ff;stroke:#0000ff;stroke-linejoin:bevel;" x="266.564564" xlink:href="#m1566b61ca1" y="350.754302"/>
     <use style="fill:#0000ff;stroke:#0000ff;stroke-linejoin:bevel;" x="264.508378" xlink:href="#m1566b61ca1" y="286.848657"/>
     <use style="fill:#0000ff;stroke:#0000ff;stroke-linejoin:bevel;" x="264.508378" xlink:href="#m1566b61ca1" y="285.16693"/>
     <use style="fill:#0000ff;stroke:#0000ff;stroke-linejoin:bevel;" x="262.452193" xlink:href="#m1566b61ca1" y="335.618755"/>
     <use style="fill:#0000ff;stroke:#0000ff;stroke-linejoin:bevel;" x="262.452193" xlink:href="#m1566b61ca1" y="263.304472"/>
     <use style="fill:#0000ff;stroke:#0000ff;stroke-linejoin:bevel;" x="262.452193" xlink:href="#m1566b61ca1" y="262.463608"/>
     <use style="fill:#0000ff;stroke:#0000ff;stroke-linejoin:bevel;" x="262.452193" xlink:href="#m1566b61ca1" y="291.052976"/>
     <use style="fill:#0000ff;stroke:#0000ff;stroke-linejoin:bevel;" x="262.452193" xlink:href="#m1566b61ca1" y="239.760287"/>
     <use style="fill:#0000ff;stroke:#0000ff;stroke-linejoin:bevel;" x="260.396007" xlink:href="#m1566b61ca1" y="311.233706"/>
     <use style="fill:#0000ff;stroke:#0000ff;stroke-linejoin:bevel;" x="260.396007" xlink:href="#m1566b61ca1" y="337.300482"/>
     <use style="fill:#0000ff;stroke:#0000ff;stroke-linejoin:bevel;" x="260.396007" xlink:href="#m1566b61ca1" y="290.212112"/>
     <use style="fill:#0000ff;stroke:#0000ff;stroke-linejoin:bevel;" x="260.396007" xlink:href="#m1566b61ca1" y="239.760287"/>
     <use style="fill:#0000ff;stroke:#0000ff;stroke-linejoin:bevel;" x="260.396007" xlink:href="#m1566b61ca1" y="325.52839"/>
     <use style="fill:#0000ff;stroke:#0000ff;stroke-linejoin:bevel;" x="258.339821" xlink:href="#m1566b61ca1" y="209.489192"/>
     <use style="fill:#0000ff;stroke:#0000ff;stroke-linejoin:bevel;" x="258.339821" xlink:href="#m1566b61ca1" y="282.644338"/>
     <use style="fill:#0000ff;stroke:#0000ff;stroke-linejoin:bevel;" x="258.339821" xlink:href="#m1566b61ca1" y="290.212112"/>
     <use style="fill:#0000ff;stroke:#0000ff;stroke-linejoin:bevel;" x="258.339821" xlink:href="#m1566b61ca1" y="264.986199"/>
     <use style="fill:#0000ff;stroke:#0000ff;stroke-linejoin:bevel;" x="256.283636" xlink:href="#m1566b61ca1" y="275.076565"/>
     <use style="fill:#0000ff;stroke:#0000ff;stroke-linejoin:bevel;" x="256.283636" xlink:href="#m1566b61ca1" y="188.467598"/>
     <use style="fill:#0000ff;stroke:#0000ff;stroke-linejoin:bevel;" x="254.22745" xlink:href="#m1566b61ca1" y="334.777891"/>
     <use style="fill:#0000ff;stroke:#0000ff;stroke-linejoin:bevel;" x="254.22745" xlink:href="#m1566b61ca1" y="359.16294"/>
     <use style="fill:#0000ff;stroke:#0000ff;stroke-linejoin:bevel;" x="254.22745" xlink:href="#m1566b61ca1" y="325.52839"/>
     <use style="fill:#0000ff;stroke:#0000ff;stroke-linejoin:bevel;" x="252.171265" xlink:href="#m1566b61ca1" y="318.80148"/>
     <use style="fill:#0000ff;stroke:#0000ff;stroke-linejoin:bevel;" x="252.171265" xlink:href="#m1566b61ca1" y="234.715104"/>
     <use style="fill:#0000ff;stroke:#0000ff;stroke-linejoin:bevel;" x="252.171265" xlink:href="#m1566b61ca1" y="303.665932"/>
     <use style="fill:#0000ff;stroke:#0000ff;stroke-linejoin:bevel;" x="252.171265" xlink:href="#m1566b61ca1" y="312.915433"/>
     <use style="fill:#0000ff;stroke:#0000ff;stroke-linejoin:bevel;" x="250.115079" xlink:href="#m1566b61ca1" y="313.756297"/>
     <use style="fill:#0000ff;stroke:#0000ff;stroke-linejoin:bevel;" x="250.115079" xlink:href="#m1566b61ca1" y="249.009788"/>
     <use style="fill:#0000ff;stroke:#0000ff;stroke-linejoin:bevel;" x="250.115079" xlink:href="#m1566b61ca1" y="316.278888"/>
     <use style="fill:#0000ff;stroke:#0000ff;stroke-linejoin:bevel;" x="250.115079" xlink:href="#m1566b61ca1" y="368.412441"/>
     <use style="fill:#0000ff;stroke:#0000ff;stroke-linejoin:bevel;" x="250.115079" xlink:href="#m1566b61ca1" y="319.642343"/>
     <use style="fill:#0000ff;stroke:#0000ff;stroke-linejoin:bevel;" x="248.058893" xlink:href="#m1566b61ca1" y="124.561953"/>
     <use style="fill:#0000ff;stroke:#0000ff;stroke-linejoin:bevel;" x="248.058893" xlink:href="#m1566b61ca1" y="223.783876"/>
     <use style="fill:#0000ff;stroke:#0000ff;stroke-linejoin:bevel;" x="248.058893" xlink:href="#m1566b61ca1" y="280.121747"/>
     <use style="fill:#0000ff;stroke:#0000ff;stroke-linejoin:bevel;" x="248.058893" xlink:href="#m1566b61ca1" y="248.168924"/>
     <use style="fill:#0000ff;stroke:#0000ff;stroke-linejoin:bevel;" x="246.002708" xlink:href="#m1566b61ca1" y="342.345665"/>
     <use style="fill:#0000ff;stroke:#0000ff;stroke-linejoin:bevel;" x="246.002708" xlink:href="#m1566b61ca1" y="228.829058"/>
     <use style="fill:#0000ff;stroke:#0000ff;stroke-linejoin:bevel;" x="243.946522" xlink:href="#m1566b61ca1" y="337.300482"/>
     <use style="fill:#0000ff;stroke:#0000ff;stroke-linejoin:bevel;" x="243.946522" xlink:href="#m1566b61ca1" y="399.5244"/>
     <use style="fill:#0000ff;stroke:#0000ff;stroke-linejoin:bevel;" x="243.946522" xlink:href="#m1566b61ca1" y="315.438025"/>
     <use style="fill:#0000ff;stroke:#0000ff;stroke-linejoin:bevel;" x="239.834151" xlink:href="#m1566b61ca1" y="243.964606"/>
     <use style="fill:#0000ff;stroke:#0000ff;stroke-linejoin:bevel;" x="239.834151" xlink:href="#m1566b61ca1" y="336.459619"/>
     <use style="fill:#0000ff;stroke:#0000ff;stroke-linejoin:bevel;" x="239.834151" xlink:href="#m1566b61ca1" y="227.988194"/>
     <use style="fill:#0000ff;stroke:#0000ff;stroke-linejoin:bevel;" x="239.834151" xlink:href="#m1566b61ca1" y="297.779886"/>
     <use style="fill:#0000ff;stroke:#0000ff;stroke-linejoin:bevel;" x="235.72178" xlink:href="#m1566b61ca1" y="364.208122"/>
     <use style="fill:#0000ff;stroke:#0000ff;stroke-linejoin:bevel;" x="235.72178" xlink:href="#m1566b61ca1" y="283.485202"/>
     <use style="fill:#0000ff;stroke:#0000ff;stroke-linejoin:bevel;" x="233.665594" xlink:href="#m1566b61ca1" y="348.231711"/>
     <use style="fill:#0000ff;stroke:#0000ff;stroke-linejoin:bevel;" x="233.665594" xlink:href="#m1566b61ca1" y="302.825068"/>
     <use style="fill:#0000ff;stroke:#0000ff;stroke-linejoin:bevel;" x="233.665594" xlink:href="#m1566b61ca1" y="358.322076"/>
     <use style="fill:#0000ff;stroke:#0000ff;stroke-linejoin:bevel;" x="231.609409" xlink:href="#m1566b61ca1" y="195.194508"/>
     <use style="fill:#0000ff;stroke:#0000ff;stroke-linejoin:bevel;" x="229.553223" xlink:href="#m1566b61ca1" y="367.571577"/>
     <use style="fill:#0000ff;stroke:#0000ff;stroke-linejoin:bevel;" x="227.497037" xlink:href="#m1566b61ca1" y="212.852647"/>
     <use style="fill:#0000ff;stroke:#0000ff;stroke-linejoin:bevel;" x="227.497037" xlink:href="#m1566b61ca1" y="149.787865"/>
     <use style="fill:#0000ff;stroke:#0000ff;stroke-linejoin:bevel;" x="225.440852" xlink:href="#m1566b61ca1" y="333.937027"/>
     <use style="fill:#0000ff;stroke:#0000ff;stroke-linejoin:bevel;" x="223.384666" xlink:href="#m1566b61ca1" y="293.575567"/>
     <use style="fill:#0000ff;stroke:#0000ff;stroke-linejoin:bevel;" x="223.384666" xlink:href="#m1566b61ca1" y="374.298487"/>
     <use style="fill:#0000ff;stroke:#0000ff;stroke-linejoin:bevel;" x="223.384666" xlink:href="#m1566b61ca1" y="241.442014"/>
     <use style="fill:#0000ff;stroke:#0000ff;stroke-linejoin:bevel;" x="221.328481" xlink:href="#m1566b61ca1" y="185.945007"/>
     <use style="fill:#0000ff;stroke:#0000ff;stroke-linejoin:bevel;" x="221.328481" xlink:href="#m1566b61ca1" y="334.777891"/>
     <use style="fill:#0000ff;stroke:#0000ff;stroke-linejoin:bevel;" x="217.21611" xlink:href="#m1566b61ca1" y="222.102148"/>
     <use style="fill:#0000ff;stroke:#0000ff;stroke-linejoin:bevel;" x="217.21611" xlink:href="#m1566b61ca1" y="297.779886"/>
     <use style="fill:#0000ff;stroke:#0000ff;stroke-linejoin:bevel;" x="215.159924" xlink:href="#m1566b61ca1" y="347.390847"/>
     <use style="fill:#0000ff;stroke:#0000ff;stroke-linejoin:bevel;" x="215.159924" xlink:href="#m1566b61ca1" y="317.960616"/>
     <use style="fill:#0000ff;stroke:#0000ff;stroke-linejoin:bevel;" x="215.159924" xlink:href="#m1566b61ca1" y="302.825068"/>
     <use style="fill:#0000ff;stroke:#0000ff;stroke-linejoin:bevel;" x="213.103738" xlink:href="#m1566b61ca1" y="268.349654"/>
     <use style="fill:#0000ff;stroke:#0000ff;stroke-linejoin:bevel;" x="213.103738" xlink:href="#m1566b61ca1" y="375.980215"/>
     <use style="fill:#0000ff;stroke:#0000ff;stroke-linejoin:bevel;" x="211.047553" xlink:href="#m1566b61ca1" y="360.003804"/>
     <use style="fill:#0000ff;stroke:#0000ff;stroke-linejoin:bevel;" x="206.935182" xlink:href="#m1566b61ca1" y="309.551978"/>
     <use style="fill:#0000ff;stroke:#0000ff;stroke-linejoin:bevel;" x="204.878996" xlink:href="#m1566b61ca1" y="308.711115"/>
     <use style="fill:#0000ff;stroke:#0000ff;stroke-linejoin:bevel;" x="200.766625" xlink:href="#m1566b61ca1" y="307.029387"/>
     <use style="fill:#0000ff;stroke:#0000ff;stroke-linejoin:bevel;" x="200.766625" xlink:href="#m1566b61ca1" y="355.799485"/>
     <use style="fill:#0000ff;stroke:#0000ff;stroke-linejoin:bevel;" x="194.598068" xlink:href="#m1566b61ca1" y="324.687526"/>
     <use style="fill:#0000ff;stroke:#0000ff;stroke-linejoin:bevel;" x="192.541882" xlink:href="#m1566b61ca1" y="298.62075"/>
     <use style="fill:#0000ff;stroke:#0000ff;stroke-linejoin:bevel;" x="182.260954" xlink:href="#m1566b61ca1" y="132.97059"/>
     <use style="fill:#0000ff;stroke:#0000ff;stroke-linejoin:bevel;" x="182.260954" xlink:href="#m1566b61ca1" y="287.689521"/>
     <use style="fill:#0000ff;stroke:#0000ff;stroke-linejoin:bevel;" x="182.260954" xlink:href="#m1566b61ca1" y="382.707125"/>
     <use style="fill:#0000ff;stroke:#0000ff;stroke-linejoin:bevel;" x="178.148583" xlink:href="#m1566b61ca1" y="365.88985"/>
     <use style="fill:#0000ff;stroke:#0000ff;stroke-linejoin:bevel;" x="174.036212" xlink:href="#m1566b61ca1" y="347.390847"/>
     <use style="fill:#0000ff;stroke:#0000ff;stroke-linejoin:bevel;" x="157.586727" xlink:href="#m1566b61ca1" y="233.033377"/>
    </g>
   </g>
   <g id="line2d_34">
    <defs>
     <path d="M 0 -3 
L -0.673542 -0.927051 
L -2.85317 -0.927051 
L -1.089814 0.354102 
L -1.763356 2.427051 
L -0 1.145898 
L 1.763356 2.427051 
L 1.089814 0.354102 
L 2.85317 -0.927051 
L 0.673542 -0.927051 
z
" id="me7cdfaf2af" style="stroke:#ff0000;stroke-linejoin:bevel;"/>
    </defs>
    <g clip-path="url(#pcfcbb9933d)">
     <use style="fill:#ff0000;stroke:#ff0000;stroke-linejoin:bevel;" x="646.958899" xlink:href="#me7cdfaf2af" y="264.986199"/>
    </g>
   </g>
   <g id="line2d_35">
    <g clip-path="url(#pcfcbb9933d)">
     <use style="fill:#ff0000;stroke:#ff0000;stroke-linejoin:bevel;" x="665.464569" xlink:href="#me7cdfaf2af" y="212.011783"/>
    </g>
   </g>
   <g id="line2d_36">
    <g clip-path="url(#pcfcbb9933d)">
     <use style="fill:#ff0000;stroke:#ff0000;stroke-linejoin:bevel;" x="638.734156" xlink:href="#me7cdfaf2af" y="221.261284"/>
    </g>
   </g>
   <g id="line2d_37">
    <defs>
     <path d="M 0 -3 
L -0.673542 -0.927051 
L -2.85317 -0.927051 
L -1.089814 0.354102 
L -1.763356 2.427051 
L -0 1.145898 
L 1.763356 2.427051 
L 1.089814 0.354102 
L 2.85317 -0.927051 
L 0.673542 -0.927051 
z
" id="m600e86a42b" style="stroke:#008000;stroke-linejoin:bevel;"/>
    </defs>
    <g clip-path="url(#pcfcbb9933d)">
     <use style="fill:#008000;stroke:#008000;stroke-linejoin:bevel;" x="850.521273" xlink:href="#m600e86a42b" y="294.416431"/>
    </g>
   </g>
   <g id="line2d_38">
    <g clip-path="url(#pcfcbb9933d)">
     <use style="fill:#008000;stroke:#008000;stroke-linejoin:bevel;" x="780.610963" xlink:href="#m600e86a42b" y="249.850652"/>
    </g>
   </g>
   <g id="line2d_39">
    <g clip-path="url(#pcfcbb9933d)">
     <use style="fill:#008000;stroke:#008000;stroke-linejoin:bevel;" x="842.29653" xlink:href="#m600e86a42b" y="222.943012"/>
    </g>
   </g>
   <g id="line2d_40">
    <g clip-path="url(#pcfcbb9933d)">
     <use style="fill:#008000;stroke:#008000;stroke-linejoin:bevel;" x="741.543436" xlink:href="#m600e86a42b" y="249.009788"/>
    </g>
   </g>
   <g id="patch_3">
    <path d="M 122.94 415.8792 
L 122.94 56.0736 
" style="fill:none;stroke:#000000;stroke-linecap:square;stroke-linejoin:miter;stroke-width:0.8;"/>
   </g>
   <g id="patch_4">
    <path d="M 885.168 415.8792 
L 885.168 56.0736 
" style="fill:none;stroke:#000000;stroke-linecap:square;stroke-linejoin:miter;stroke-width:0.8;"/>
   </g>
   <g id="patch_5">
    <path d="M 122.94 415.8792 
L 885.168 415.8792 
" style="fill:none;stroke:#000000;stroke-linecap:square;stroke-linejoin:miter;stroke-width:0.8;"/>
   </g>
   <g id="patch_6">
    <path d="M 122.94 56.0736 
L 885.168 56.0736 
" style="fill:none;stroke:#000000;stroke-linecap:square;stroke-linejoin:miter;stroke-width:0.8;"/>
   </g>
   <g id="text_19">
    <!-- 06Bryant -->
    <defs>
     <path d="M 19.671875 34.8125 
L 19.671875 8.109375 
L 35.5 8.109375 
Q 43.453125 8.109375 47.28125 11.40625 
Q 51.125 14.703125 51.125 21.484375 
Q 51.125 28.328125 47.28125 31.5625 
Q 43.453125 34.8125 35.5 34.8125 
z
M 19.671875 64.796875 
L 19.671875 42.828125 
L 34.28125 42.828125 
Q 41.5 42.828125 45.03125 45.53125 
Q 48.578125 48.25 48.578125 53.8125 
Q 48.578125 59.328125 45.03125 62.0625 
Q 41.5 64.796875 34.28125 64.796875 
z
M 9.8125 72.90625 
L 35.015625 72.90625 
Q 46.296875 72.90625 52.390625 68.21875 
Q 58.5 63.53125 58.5 54.890625 
Q 58.5 48.1875 55.375 44.234375 
Q 52.25 40.28125 46.1875 39.3125 
Q 53.46875 37.75 57.5 32.78125 
Q 61.53125 27.828125 61.53125 20.40625 
Q 61.53125 10.640625 54.890625 5.3125 
Q 48.25 0 35.984375 0 
L 9.8125 0 
z
" id="DejaVuSans-42"/>
     <path d="M 41.109375 46.296875 
Q 39.59375 47.171875 37.8125 47.578125 
Q 36.03125 48 33.890625 48 
Q 26.265625 48 22.1875 43.046875 
Q 18.109375 38.09375 18.109375 28.8125 
L 18.109375 0 
L 9.078125 0 
L 9.078125 54.6875 
L 18.109375 54.6875 
L 18.109375 46.1875 
Q 20.953125 51.171875 25.484375 53.578125 
Q 30.03125 56 36.53125 56 
Q 37.453125 56 38.578125 55.875 
Q 39.703125 55.765625 41.0625 55.515625 
z
" id="DejaVuSans-72"/>
     <path d="M 32.171875 -5.078125 
Q 28.375 -14.84375 24.75 -17.8125 
Q 21.140625 -20.796875 15.09375 -20.796875 
L 7.90625 -20.796875 
L 7.90625 -13.28125 
L 13.1875 -13.28125 
Q 16.890625 -13.28125 18.9375 -11.515625 
Q 21 -9.765625 23.484375 -3.21875 
L 25.09375 0.875 
L 2.984375 54.6875 
L 12.5 54.6875 
L 29.59375 11.921875 
L 46.6875 54.6875 
L 56.203125 54.6875 
z
" id="DejaVuSans-79"/>
     <path d="M 34.28125 27.484375 
Q 23.390625 27.484375 19.1875 25 
Q 14.984375 22.515625 14.984375 16.5 
Q 14.984375 11.71875 18.140625 8.90625 
Q 21.296875 6.109375 26.703125 6.109375 
Q 34.1875 6.109375 38.703125 11.40625 
Q 43.21875 16.703125 43.21875 25.484375 
L 43.21875 27.484375 
z
M 52.203125 31.203125 
L 52.203125 0 
L 43.21875 0 
L 43.21875 8.296875 
Q 40.140625 3.328125 35.546875 0.953125 
Q 30.953125 -1.421875 24.3125 -1.421875 
Q 15.921875 -1.421875 10.953125 3.296875 
Q 6 8.015625 6 15.921875 
Q 6 25.140625 12.171875 29.828125 
Q 18.359375 34.515625 30.609375 34.515625 
L 43.21875 34.515625 
L 43.21875 35.40625 
Q 43.21875 41.609375 39.140625 45 
Q 35.0625 48.390625 27.6875 48.390625 
Q 23 48.390625 18.546875 47.265625 
Q 14.109375 46.140625 10.015625 43.890625 
L 10.015625 52.203125 
Q 14.9375 54.109375 19.578125 55.046875 
Q 24.21875 56 28.609375 56 
Q 40.484375 56 46.34375 49.84375 
Q 52.203125 43.703125 52.203125 31.203125 
" id="DejaVuSans-61"/>
     <path d="M 54.890625 33.015625 
L 54.890625 0 
L 45.90625 0 
L 45.90625 32.71875 
Q 45.90625 40.484375 42.875 44.328125 
Q 39.84375 48.1875 33.796875 48.1875 
Q 26.515625 48.1875 22.3125 43.546875 
Q 18.109375 38.921875 18.109375 30.90625 
L 18.109375 0 
L 9.078125 0 
L 9.078125 54.6875 
L 18.109375 54.6875 
L 18.109375 46.1875 
Q 21.34375 51.125 25.703125 53.5625 
Q 30.078125 56 35.796875 56 
Q 45.21875 56 50.046875 50.171875 
Q 54.890625 44.34375 54.890625 33.015625 
" id="DejaVuSans-6e"/>
     <path d="M 18.3125 70.21875 
L 18.3125 54.6875 
L 36.8125 54.6875 
L 36.8125 47.703125 
L 18.3125 47.703125 
L 18.3125 18.015625 
Q 18.3125 11.328125 20.140625 9.421875 
Q 21.96875 7.515625 27.59375 7.515625 
L 36.8125 7.515625 
L 36.8125 0 
L 27.59375 0 
Q 17.1875 0 13.234375 3.875 
Q 9.28125 7.765625 9.28125 18.015625 
L 9.28125 47.703125 
L 2.6875 47.703125 
L 2.6875 54.6875 
L 9.28125 54.6875 
L 9.28125 70.21875 
z
" id="DejaVuSans-74"/>
    </defs>
    <g transform="translate(850.521273 294.416431)scale(0.07 -0.07)">
     <use xlink:href="#DejaVuSans-30"/>
     <use x="63.623047" xlink:href="#DejaVuSans-36"/>
     <use x="127.246094" xlink:href="#DejaVuSans-42"/>
     <use x="195.849609" xlink:href="#DejaVuSans-72"/>
     <use x="236.962891" xlink:href="#DejaVuSans-79"/>
     <use x="296.142578" xlink:href="#DejaVuSans-61"/>
     <use x="357.421875" xlink:href="#DejaVuSans-6e"/>
     <use x="420.800781" xlink:href="#DejaVuSans-74"/>
    </g>
   </g>
   <g id="text_20">
    <!-- 14Durant -->
    <defs>
     <path d="M 19.671875 64.796875 
L 19.671875 8.109375 
L 31.59375 8.109375 
Q 46.6875 8.109375 53.6875 14.9375 
Q 60.6875 21.78125 60.6875 36.53125 
Q 60.6875 51.171875 53.6875 57.984375 
Q 46.6875 64.796875 31.59375 64.796875 
z
M 9.8125 72.90625 
L 30.078125 72.90625 
Q 51.265625 72.90625 61.171875 64.09375 
Q 71.09375 55.28125 71.09375 36.53125 
Q 71.09375 17.671875 61.125 8.828125 
Q 51.171875 0 30.078125 0 
L 9.8125 0 
z
" id="DejaVuSans-44"/>
     <path d="M 8.5 21.578125 
L 8.5 54.6875 
L 17.484375 54.6875 
L 17.484375 21.921875 
Q 17.484375 14.15625 20.5 10.265625 
Q 23.53125 6.390625 29.59375 6.390625 
Q 36.859375 6.390625 41.078125 11.03125 
Q 45.3125 15.671875 45.3125 23.6875 
L 45.3125 54.6875 
L 54.296875 54.6875 
L 54.296875 0 
L 45.3125 0 
L 45.3125 8.40625 
Q 42.046875 3.421875 37.71875 1 
Q 33.40625 -1.421875 27.6875 -1.421875 
Q 18.265625 -1.421875 13.375 4.4375 
Q 8.5 10.296875 8.5 21.578125 
M 31.109375 56 
z
" id="DejaVuSans-75"/>
    </defs>
    <g transform="translate(780.610963 249.850652)scale(0.07 -0.07)">
     <use xlink:href="#DejaVuSans-31"/>
     <use x="63.623047" xlink:href="#DejaVuSans-34"/>
     <use x="127.246094" xlink:href="#DejaVuSans-44"/>
     <use x="204.248047" xlink:href="#DejaVuSans-75"/>
     <use x="267.626953" xlink:href="#DejaVuSans-72"/>
     <use x="308.740234" xlink:href="#DejaVuSans-61"/>
     <use x="370.019531" xlink:href="#DejaVuSans-6e"/>
     <use x="433.398438" xlink:href="#DejaVuSans-74"/>
    </g>
   </g>
   <g id="text_21">
    <!-- 88Jordan -->
    <defs>
     <path d="M 31.78125 34.625 
Q 24.75 34.625 20.71875 30.859375 
Q 16.703125 27.09375 16.703125 20.515625 
Q 16.703125 13.921875 20.71875 10.15625 
Q 24.75 6.390625 31.78125 6.390625 
Q 38.8125 6.390625 42.859375 10.171875 
Q 46.921875 13.96875 46.921875 20.515625 
Q 46.921875 27.09375 42.890625 30.859375 
Q 38.875 34.625 31.78125 34.625 
M 21.921875 38.8125 
Q 15.578125 40.375 12.03125 44.71875 
Q 8.5 49.078125 8.5 55.328125 
Q 8.5 64.0625 14.71875 69.140625 
Q 20.953125 74.21875 31.78125 74.21875 
Q 42.671875 74.21875 48.875 69.140625 
Q 55.078125 64.0625 55.078125 55.328125 
Q 55.078125 49.078125 51.53125 44.71875 
Q 48 40.375 41.703125 38.8125 
Q 48.828125 37.15625 52.796875 32.3125 
Q 56.78125 27.484375 56.78125 20.515625 
Q 56.78125 9.90625 50.3125 4.234375 
Q 43.84375 -1.421875 31.78125 -1.421875 
Q 19.734375 -1.421875 13.25 4.234375 
Q 6.78125 9.90625 6.78125 20.515625 
Q 6.78125 27.484375 10.78125 32.3125 
Q 14.796875 37.15625 21.921875 38.8125 
M 18.3125 54.390625 
Q 18.3125 48.734375 21.84375 45.5625 
Q 25.390625 42.390625 31.78125 42.390625 
Q 38.140625 42.390625 41.71875 45.5625 
Q 45.3125 48.734375 45.3125 54.390625 
Q 45.3125 60.0625 41.71875 63.234375 
Q 38.140625 66.40625 31.78125 66.40625 
Q 25.390625 66.40625 21.84375 63.234375 
Q 18.3125 60.0625 18.3125 54.390625 
" id="DejaVuSans-38"/>
     <path d="M 9.8125 72.90625 
L 19.671875 72.90625 
L 19.671875 5.078125 
Q 19.671875 -8.109375 14.671875 -14.0625 
Q 9.671875 -20.015625 -1.421875 -20.015625 
L -5.171875 -20.015625 
L -5.171875 -11.71875 
L -2.09375 -11.71875 
Q 4.4375 -11.71875 7.125 -8.046875 
Q 9.8125 -4.390625 9.8125 5.078125 
z
" id="DejaVuSans-4a"/>
     <path d="M 30.609375 48.390625 
Q 23.390625 48.390625 19.1875 42.75 
Q 14.984375 37.109375 14.984375 27.296875 
Q 14.984375 17.484375 19.15625 11.84375 
Q 23.34375 6.203125 30.609375 6.203125 
Q 37.796875 6.203125 41.984375 11.859375 
Q 46.1875 17.53125 46.1875 27.296875 
Q 46.1875 37.015625 41.984375 42.703125 
Q 37.796875 48.390625 30.609375 48.390625 
M 30.609375 56 
Q 42.328125 56 49.015625 48.375 
Q 55.71875 40.765625 55.71875 27.296875 
Q 55.71875 13.875 49.015625 6.21875 
Q 42.328125 -1.421875 30.609375 -1.421875 
Q 18.84375 -1.421875 12.171875 6.21875 
Q 5.515625 13.875 5.515625 27.296875 
Q 5.515625 40.765625 12.171875 48.375 
Q 18.84375 56 30.609375 56 
" id="DejaVuSans-6f"/>
     <path d="M 45.40625 46.390625 
L 45.40625 75.984375 
L 54.390625 75.984375 
L 54.390625 0 
L 45.40625 0 
L 45.40625 8.203125 
Q 42.578125 3.328125 38.25 0.953125 
Q 33.9375 -1.421875 27.875 -1.421875 
Q 17.96875 -1.421875 11.734375 6.484375 
Q 5.515625 14.40625 5.515625 27.296875 
Q 5.515625 40.1875 11.734375 48.09375 
Q 17.96875 56 27.875 56 
Q 33.9375 56 38.25 53.625 
Q 42.578125 51.265625 45.40625 46.390625 
M 14.796875 27.296875 
Q 14.796875 17.390625 18.875 11.75 
Q 22.953125 6.109375 30.078125 6.109375 
Q 37.203125 6.109375 41.296875 11.75 
Q 45.40625 17.390625 45.40625 27.296875 
Q 45.40625 37.203125 41.296875 42.84375 
Q 37.203125 48.484375 30.078125 48.484375 
Q 22.953125 48.484375 18.875 42.84375 
Q 14.796875 37.203125 14.796875 27.296875 
" id="DejaVuSans-64"/>
    </defs>
    <g transform="translate(842.29653 222.943012)scale(0.07 -0.07)">
     <use xlink:href="#DejaVuSans-38"/>
     <use x="63.623047" xlink:href="#DejaVuSans-38"/>
     <use x="127.246094" xlink:href="#DejaVuSans-4a"/>
     <use x="156.738281" xlink:href="#DejaVuSans-6f"/>
     <use x="217.919922" xlink:href="#DejaVuSans-72"/>
     <use x="259.017578" xlink:href="#DejaVuSans-64"/>
     <use x="322.494141" xlink:href="#DejaVuSans-61"/>
     <use x="383.773438" xlink:href="#DejaVuSans-6e"/>
    </g>
   </g>
   <g id="text_22">
    <!-- 16Curry -->
    <g transform="translate(741.543436 249.009788)scale(0.07 -0.07)">
     <use xlink:href="#DejaVuSans-31"/>
     <use x="63.623047" xlink:href="#DejaVuSans-36"/>
     <use x="127.246094" xlink:href="#DejaVuSans-43"/>
     <use x="197.070312" xlink:href="#DejaVuSans-75"/>
     <use x="260.449219" xlink:href="#DejaVuSans-72"/>
     <use x="301.546875" xlink:href="#DejaVuSans-72"/>
     <use x="342.660156" xlink:href="#DejaVuSans-79"/>
    </g>
   </g>
   <g id="text_23">
    <!-- Durant -->
    <g transform="translate(638.734156 221.261284)scale(0.07 -0.07)">
     <use xlink:href="#DejaVuSans-44"/>
     <use x="77.001953" xlink:href="#DejaVuSans-75"/>
     <use x="140.380859" xlink:href="#DejaVuSans-72"/>
     <use x="181.494141" xlink:href="#DejaVuSans-61"/>
     <use x="242.773438" xlink:href="#DejaVuSans-6e"/>
     <use x="306.152344" xlink:href="#DejaVuSans-74"/>
    </g>
   </g>
   <g id="text_24">
    <!-- James -->
    <defs>
     <path d="M 52 44.1875 
Q 55.375 50.25 60.0625 53.125 
Q 64.75 56 71.09375 56 
Q 79.640625 56 84.28125 50.015625 
Q 88.921875 44.046875 88.921875 33.015625 
L 88.921875 0 
L 79.890625 0 
L 79.890625 32.71875 
Q 79.890625 40.578125 77.09375 44.375 
Q 74.3125 48.1875 68.609375 48.1875 
Q 61.625 48.1875 57.5625 43.546875 
Q 53.515625 38.921875 53.515625 30.90625 
L 53.515625 0 
L 44.484375 0 
L 44.484375 32.71875 
Q 44.484375 40.625 41.703125 44.40625 
Q 38.921875 48.1875 33.109375 48.1875 
Q 26.21875 48.1875 22.15625 43.53125 
Q 18.109375 38.875 18.109375 30.90625 
L 18.109375 0 
L 9.078125 0 
L 9.078125 54.6875 
L 18.109375 54.6875 
L 18.109375 46.1875 
Q 21.1875 51.21875 25.484375 53.609375 
Q 29.78125 56 35.6875 56 
Q 41.65625 56 45.828125 52.96875 
Q 50 49.953125 52 44.1875 
" id="DejaVuSans-6d"/>
     <path d="M 56.203125 29.59375 
L 56.203125 25.203125 
L 14.890625 25.203125 
Q 15.484375 15.921875 20.484375 11.0625 
Q 25.484375 6.203125 34.421875 6.203125 
Q 39.59375 6.203125 44.453125 7.46875 
Q 49.3125 8.734375 54.109375 11.28125 
L 54.109375 2.78125 
Q 49.265625 0.734375 44.1875 -0.34375 
Q 39.109375 -1.421875 33.890625 -1.421875 
Q 20.796875 -1.421875 13.15625 6.1875 
Q 5.515625 13.8125 5.515625 26.8125 
Q 5.515625 40.234375 12.765625 48.109375 
Q 20.015625 56 32.328125 56 
Q 43.359375 56 49.78125 48.890625 
Q 56.203125 41.796875 56.203125 29.59375 
M 47.21875 32.234375 
Q 47.125 39.59375 43.09375 43.984375 
Q 39.0625 48.390625 32.421875 48.390625 
Q 24.90625 48.390625 20.390625 44.140625 
Q 15.875 39.890625 15.1875 32.171875 
z
" id="DejaVuSans-65"/>
     <path d="M 44.28125 53.078125 
L 44.28125 44.578125 
Q 40.484375 46.53125 36.375 47.5 
Q 32.28125 48.484375 27.875 48.484375 
Q 21.1875 48.484375 17.84375 46.4375 
Q 14.5 44.390625 14.5 40.28125 
Q 14.5 37.15625 16.890625 35.375 
Q 19.28125 33.59375 26.515625 31.984375 
L 29.59375 31.296875 
Q 39.15625 29.25 43.1875 25.515625 
Q 47.21875 21.78125 47.21875 15.09375 
Q 47.21875 7.46875 41.1875 3.015625 
Q 35.15625 -1.421875 24.609375 -1.421875 
Q 20.21875 -1.421875 15.453125 -0.5625 
Q 10.6875 0.296875 5.421875 2 
L 5.421875 11.28125 
Q 10.40625 8.6875 15.234375 7.390625 
Q 20.0625 6.109375 24.8125 6.109375 
Q 31.15625 6.109375 34.5625 8.28125 
Q 37.984375 10.453125 37.984375 14.40625 
Q 37.984375 18.0625 35.515625 20.015625 
Q 33.0625 21.96875 24.703125 23.78125 
L 21.578125 24.515625 
Q 13.234375 26.265625 9.515625 29.90625 
Q 5.8125 33.546875 5.8125 39.890625 
Q 5.8125 47.609375 11.28125 51.796875 
Q 16.75 56 26.8125 56 
Q 31.78125 56 36.171875 55.265625 
Q 40.578125 54.546875 44.28125 53.078125 
" id="DejaVuSans-73"/>
    </defs>
    <g transform="translate(665.464569 212.011783)scale(0.07 -0.07)">
     <use xlink:href="#DejaVuSans-4a"/>
     <use x="29.492188" xlink:href="#DejaVuSans-61"/>
     <use x="90.771484" xlink:href="#DejaVuSans-6d"/>
     <use x="188.183594" xlink:href="#DejaVuSans-65"/>
     <use x="249.707031" xlink:href="#DejaVuSans-73"/>
    </g>
   </g>
   <g id="text_25">
    <!-- Leonard -->
    <defs>
     <path d="M 9.8125 72.90625 
L 19.671875 72.90625 
L 19.671875 8.296875 
L 55.171875 8.296875 
L 55.171875 0 
L 9.8125 0 
z
" id="DejaVuSans-4c"/>
    </defs>
    <g transform="translate(646.958899 264.986199)scale(0.07 -0.07)">
     <use xlink:href="#DejaVuSans-4c"/>
     <use x="55.697266" xlink:href="#DejaVuSans-65"/>
     <use x="117.220703" xlink:href="#DejaVuSans-6f"/>
     <use x="178.402344" xlink:href="#DejaVuSans-6e"/>
     <use x="241.78125" xlink:href="#DejaVuSans-61"/>
     <use x="303.060547" xlink:href="#DejaVuSans-72"/>
     <use x="344.158203" xlink:href="#DejaVuSans-64"/>
    </g>
   </g>
   <g id="text_26">
    <!-- 16-17 Regular Season of NBA -->
    <defs>
     <path d="M 4.890625 31.390625 
L 31.203125 31.390625 
L 31.203125 23.390625 
L 4.890625 23.390625 
z
" id="DejaVuSans-2d"/>
     <path id="DejaVuSans-20"/>
     <path d="M 44.390625 34.1875 
Q 47.5625 33.109375 50.5625 29.59375 
Q 53.5625 26.078125 56.59375 19.921875 
L 66.609375 0 
L 56 0 
L 46.6875 18.703125 
Q 43.0625 26.03125 39.671875 28.421875 
Q 36.28125 30.8125 30.421875 30.8125 
L 19.671875 30.8125 
L 19.671875 0 
L 9.8125 0 
L 9.8125 72.90625 
L 32.078125 72.90625 
Q 44.578125 72.90625 50.734375 67.671875 
Q 56.890625 62.453125 56.890625 51.90625 
Q 56.890625 45.015625 53.6875 40.46875 
Q 50.484375 35.9375 44.390625 34.1875 
M 19.671875 64.796875 
L 19.671875 38.921875 
L 32.078125 38.921875 
Q 39.203125 38.921875 42.84375 42.21875 
Q 46.484375 45.515625 46.484375 51.90625 
Q 46.484375 58.296875 42.84375 61.546875 
Q 39.203125 64.796875 32.078125 64.796875 
z
" id="DejaVuSans-52"/>
     <path d="M 45.40625 27.984375 
Q 45.40625 37.75 41.375 43.109375 
Q 37.359375 48.484375 30.078125 48.484375 
Q 22.859375 48.484375 18.828125 43.109375 
Q 14.796875 37.75 14.796875 27.984375 
Q 14.796875 18.265625 18.828125 12.890625 
Q 22.859375 7.515625 30.078125 7.515625 
Q 37.359375 7.515625 41.375 12.890625 
Q 45.40625 18.265625 45.40625 27.984375 
M 54.390625 6.78125 
Q 54.390625 -7.171875 48.1875 -13.984375 
Q 42 -20.796875 29.203125 -20.796875 
Q 24.46875 -20.796875 20.265625 -20.09375 
Q 16.0625 -19.390625 12.109375 -17.921875 
L 12.109375 -9.1875 
Q 16.0625 -11.328125 19.921875 -12.34375 
Q 23.78125 -13.375 27.78125 -13.375 
Q 36.625 -13.375 41.015625 -8.765625 
Q 45.40625 -4.15625 45.40625 5.171875 
L 45.40625 9.625 
Q 42.625 4.78125 38.28125 2.390625 
Q 33.9375 0 27.875 0 
Q 17.828125 0 11.671875 7.65625 
Q 5.515625 15.328125 5.515625 27.984375 
Q 5.515625 40.671875 11.671875 48.328125 
Q 17.828125 56 27.875 56 
Q 33.9375 56 38.28125 53.609375 
Q 42.625 51.21875 45.40625 46.390625 
L 45.40625 54.6875 
L 54.390625 54.6875 
z
" id="DejaVuSans-67"/>
     <path d="M 9.421875 75.984375 
L 18.40625 75.984375 
L 18.40625 0 
L 9.421875 0 
z
" id="DejaVuSans-6c"/>
     <path d="M 37.109375 75.984375 
L 37.109375 68.5 
L 28.515625 68.5 
Q 23.6875 68.5 21.796875 66.546875 
Q 19.921875 64.59375 19.921875 59.515625 
L 19.921875 54.6875 
L 34.71875 54.6875 
L 34.71875 47.703125 
L 19.921875 47.703125 
L 19.921875 0 
L 10.890625 0 
L 10.890625 47.703125 
L 2.296875 47.703125 
L 2.296875 54.6875 
L 10.890625 54.6875 
L 10.890625 58.5 
Q 10.890625 67.625 15.140625 71.796875 
Q 19.390625 75.984375 28.609375 75.984375 
z
" id="DejaVuSans-66"/>
     <path d="M 9.8125 72.90625 
L 23.09375 72.90625 
L 55.421875 11.921875 
L 55.421875 72.90625 
L 64.984375 72.90625 
L 64.984375 0 
L 51.703125 0 
L 19.390625 60.984375 
L 19.390625 0 
L 9.8125 0 
z
" id="DejaVuSans-4e"/>
     <path d="M 34.1875 63.1875 
L 20.796875 26.90625 
L 47.609375 26.90625 
z
M 28.609375 72.90625 
L 39.796875 72.90625 
L 67.578125 0 
L 57.328125 0 
L 50.6875 18.703125 
L 17.828125 18.703125 
L 11.1875 0 
L 0.78125 0 
z
" id="DejaVuSans-41"/>
    </defs>
    <g transform="translate(415.442438 50.0736)scale(0.12 -0.12)">
     <use xlink:href="#DejaVuSans-31"/>
     <use x="63.623047" xlink:href="#DejaVuSans-36"/>
     <use x="127.246094" xlink:href="#DejaVuSans-2d"/>
     <use x="163.330078" xlink:href="#DejaVuSans-31"/>
     <use x="226.953125" xlink:href="#DejaVuSans-37"/>
     <use x="290.576172" xlink:href="#DejaVuSans-20"/>
     <use x="322.363281" xlink:href="#DejaVuSans-52"/>
     <use x="391.783203" xlink:href="#DejaVuSans-65"/>
     <use x="453.306641" xlink:href="#DejaVuSans-67"/>
     <use x="516.783203" xlink:href="#DejaVuSans-75"/>
     <use x="580.162109" xlink:href="#DejaVuSans-6c"/>
     <use x="607.945312" xlink:href="#DejaVuSans-61"/>
     <use x="669.224609" xlink:href="#DejaVuSans-72"/>
     <use x="710.337891" xlink:href="#DejaVuSans-20"/>
     <use x="742.125" xlink:href="#DejaVuSans-53"/>
     <use x="805.601562" xlink:href="#DejaVuSans-65"/>
     <use x="867.125" xlink:href="#DejaVuSans-61"/>
     <use x="928.404297" xlink:href="#DejaVuSans-73"/>
     <use x="980.503906" xlink:href="#DejaVuSans-6f"/>
     <use x="1041.685547" xlink:href="#DejaVuSans-6e"/>
     <use x="1105.064453" xlink:href="#DejaVuSans-20"/>
     <use x="1136.851562" xlink:href="#DejaVuSans-6f"/>
     <use x="1198.033203" xlink:href="#DejaVuSans-66"/>
     <use x="1233.238281" xlink:href="#DejaVuSans-20"/>
     <use x="1265.025391" xlink:href="#DejaVuSans-4e"/>
     <use x="1339.830078" xlink:href="#DejaVuSans-42"/>
     <use x="1408.433594" xlink:href="#DejaVuSans-41"/>
    </g>
   </g>
  </g>
 </g>
 <defs>
  <clipPath id="pcfcbb9933d">
   <rect height="359.8056" width="762.228" x="122.94" y="56.0736"/>
  </clipPath>
 </defs>
</svg>
